<svg id="Capa_1" enable-background="new 0 0 512 512" height="512" viewBox="0 0 512 512" width="512" xmlns="http://www.w3.org/2000/svg"><g><path d="m424.176 343.734c-1.273 2.979-3.475 6.649-7.154 9.284-6.009-6.422-13.401-12.375-21.55-16.547 8.174-7.112 18.528-11.388 25.129-10.819 3.512.305 4.596 1.773 5.193 3.169.091.211.161.361.272.564.614 1.387.955 7.694-1.89 14.349zm14.434 4.308c3.487-9.145 3.821-19.503.854-25.401-3.103-6.985-9.329-11.219-17.567-11.934-13.49-1.168-31.189 7.688-42.334 20.508-4.56 6.787-8.021 10.011-8.727 13.537-.534 2.671 1.919-2.225 3.791-.511.571 1.249 1.484 2.359 2.72 3.164 2.215 1.443 4.907 1.56 7.154.557 12.079 4.797 23.531 15.793 29.499 25.605 4.277 7.033 5.057 12.094 4.421 14.303-.16.562-.649 2.272-3.482 2.736-6.473 1.061-17.983-5.071-29.082-21.173-2.351-3.41-7.019-4.269-10.432-1.918-3.41 2.351-4.27 7.022-1.918 10.432 12.194 17.69 26.822 27.781 39.904 27.78 1.335 0 2.655-.105 3.954-.318 7.648-1.253 13.433-6.268 15.473-13.401 2.638-9.162-1.819-19.324-6.024-26.236-.187-.307-.382-.615-.577-.923 5.427-4.039 9.695-9.783 12.373-16.807z" fill="#ffbc85"/><path d="m121.808 367.798c-3.413-2.351-8.082-1.489-10.431 1.923-11.084 16.095-22.586 22.24-29.081 21.186-2.856-.464-3.352-2.179-3.509-2.723-.631-2.205.159-7.284 4.461-14.344 5.973-9.8 17.408-20.78 29.458-25.581 2.254 1.017 9.067.941 11.291-.508 1.251-.816 3.682 1.019 4.25-.25 1.856-1.715 7.555-.476 5.75-2.5-3.529-3.958-8-5.75-16.352-13.506-11.16-12.82-28.851-21.671-42.345-20.49-8.225.718-14.439 4.948-17.531 11.923-2.962 5.891-2.631 16.239.847 25.378 2.677 7.035 6.946 12.792 12.377 16.843-.187.296-.375.592-.554.886-4.219 6.923-8.697 17.101-6.068 26.293 2.063 7.139 7.865 12.142 15.522 13.385 1.289.209 2.597.312 3.921.312 13.094-.001 27.73-10.1 39.917-27.797 2.349-3.41 1.488-8.08-1.923-10.43zm-48.752-23.787c-2.84-6.655-2.499-12.957-1.914-14.286.11-.204.211-.413.302-.626.592-1.386 1.668-2.844 5.162-3.149 6.608-.578 16.962 3.701 25.142 10.818-8.142 4.175-15.53 10.128-21.538 16.55-3.68-2.646-5.881-6.323-7.154-9.307z" fill="#ffbc85"/><g><path d="m7.496 311.035c-3.352 0-6.404-2.264-7.265-5.661-1.017-4.016 1.414-8.095 5.43-9.112 26.954-6.823 34.277-37.935 40.738-65.384 3.012-12.796 5.857-24.882 10.563-33.705 7.827-14.674 19.041-16.078 27.064-14.672 4.08.714 6.809 4.601 6.095 8.681-.714 4.081-4.603 6.808-8.681 6.094-10.197-1.789-14.055 9.916-20.44 37.038-7.071 30.041-15.872 67.429-51.657 76.488-.618.158-1.238.233-1.847.233z" fill="#ffbc85"/></g><g><path d="m504.504 311.035c-.609 0-1.229-.075-1.847-.231-35.779-9.058-44.584-46.436-51.658-76.471-6.393-27.138-10.264-38.843-20.469-37.055-4.076.716-7.966-2.016-8.68-6.095-.714-4.08 2.015-7.966 6.096-8.68 8.029-1.406 19.249.001 27.081 14.676 4.711 8.826 7.559 20.916 10.573 33.716 6.464 27.442 13.79 58.547 40.739 65.369 4.016 1.017 6.446 5.096 5.43 9.112-.861 3.395-3.913 5.659-7.265 5.659z" fill="#ffbc85"/></g><g><path d="m282.405 56.592c-3.079 0-5.965-1.91-7.062-4.976-1.396-3.9.635-8.193 4.535-9.588 11.693-4.184 15.915-17.352 15.347-20.601-.052-.104-.101-.21-.146-.317-.309-.714-.883-2.044-3.987-2.319-7.851-.688-21.907 6.427-28.909 17.005-2.285 3.455-6.939 4.401-10.394 2.115-3.454-2.286-4.4-6.94-2.114-10.394 9.624-14.543 28.399-24.933 42.741-23.668 7.631.676 13.411 4.589 16.31 11.031 2.213 4.382 1.983 10.832-.647 17.792-4.162 11.006-12.815 19.783-23.147 23.479-.836.299-1.688.441-2.527.441zm12.989-34.838c.001.001.002.002.003.004-.001-.002-.002-.003-.003-.004z" fill="#ffbc85"/></g><g><path d="m229.51 56.592c-.839 0-1.691-.142-2.526-.44-10.322-3.693-18.981-12.463-23.164-23.46-1.263-3.322-3.817-11.617-.687-17.813 2.911-6.451 8.71-10.365 16.362-11.032 14.352-1.25 33.101 9.15 42.692 23.678 2.282 3.457 1.33 8.109-2.127 10.391-3.456 2.282-8.11 1.33-10.391-2.127-6.972-10.561-20.999-17.682-28.872-16.998-3.13.273-3.711 1.612-4.024 2.332-.041.094-.084.188-.129.28-.56 3.254 3.695 16.442 15.391 20.627 3.9 1.395 5.931 5.688 4.535 9.588-1.095 3.063-3.982 4.974-7.06 4.974zm-13.032-34.863c-.001.001-.002.002-.003.004.001-.001.002-.002.003-.004zm.194-.457" fill="#ffbc85"/></g><g><path d="m391.362 137.294c-1.552 0-3.116-.48-4.458-1.474l-108.963-80.703c-4.398-3.257-8.053-6.106-10.989-8.394-4.537-3.537-9.68-7.545-11.004-7.545-1.323 0-6.459 4.007-10.99 7.543-2.934 2.289-6.585 5.137-10.981 8.395l-108.994 80.706c-3.329 2.464-16.854 12.257-19.318 8.927-2.465-3.329-5.417-10.25 10.392-20.982l108.991-80.704c4.243-3.146 7.664-5.815 10.682-8.169 8.857-6.909 13.736-10.716 20.218-10.716 6.48 0 11.363 3.806 20.225 10.714 3.022 2.355 6.445 5.024 10.696 8.171l108.964 80.704c3.328 2.465 14.671 11.481 9.921 16.481-1.704 1.792-12.096-2.954-14.392-2.954z" fill="#ffbc85"/></g><g><path clip-rule="evenodd" d="m229.312 508.255c9.33-34.254-7.207-75.925-27.867-100.216-18.883-22.202-55.672-42.453-88.521-29.155z" fill="#7e707d" fill-rule="evenodd"/></g><g><path clip-rule="evenodd" d="m270.924 508.255 114.849-127.335c-37.452-13.299-72.651 2.392-91.585 25.136-20.155 24.212-29.757 66.458-23.264 102.199z" fill="#7e707d" fill-rule="evenodd"/></g><g><path clip-rule="evenodd" d="m270.924 508.255c7.036-61.363 41.011-125.569 111.768-126.257 2.757-.027 4.991-2.239 4.991-4.995v-3.311-29.697c0-2.761-2.239-5-5-5h-132.565-132.564c-2.761 0-5 2.239-5 5v29.98 3.028c0 2.757 2.234 4.969 4.991 4.995 70.755.688 104.703 64.894 111.768 126.257z" fill="#fe8d94" fill-rule="evenodd"/></g><g><path clip-rule="evenodd" d="m387.683 373.692v-29.697c0-2.761-2.239-5-5-5h-23.941v43.059 2.835c7.459-1.805 15.436-2.795 23.946-2.884 2.759-.029 4.995-2.239 4.995-4.999z" fill="#ff6d75" fill-rule="evenodd"/></g><g><path clip-rule="evenodd" d="m82.507 184.617c0 99.668 151.766 86.94 173.451 26.391v-15.166-15.166c-34.951-43.229-108.708-67.636-147.826-45.78-15.534 8.675-25.625 24.662-25.625 49.721z" fill="#fe8d94" fill-rule="evenodd"/></g><g><path clip-rule="evenodd" d="m255.957 211.008c21.685 60.549 173.423 73.277 173.423-26.391 0-34.952-19.616-52.272-46.346-56.722-40.62-6.718-97.625 16.356-127.076 52.782l-14.836 15.166z" fill="#fe8d94" fill-rule="evenodd"/></g><g><path d="m209.895 219.729c-3.084 0-5.974-1.917-7.067-4.988-1.388-3.903.65-8.192 4.553-9.58l46.062-16.385c3.905-1.387 8.192.65 9.58 4.553s-.65 8.192-4.553 9.58l-46.062 16.385c-.831.295-1.679.435-2.513.435z" fill="#fde588"/></g><g><path d="m255.957 203.345c-.835 0-1.683-.14-2.514-.436l-46.062-16.385c-3.902-1.388-5.941-5.677-4.553-9.58 1.389-3.903 5.68-5.94 9.58-4.553l46.062 16.385c3.902 1.388 5.941 5.677 4.553 9.58-1.092 3.071-3.982 4.989-7.066 4.989z" fill="#fde588"/></g><g><path d="m301.992 219.729c-.835 0-1.684-.14-2.515-.436l-46.035-16.385c-3.902-1.389-5.941-5.678-4.551-9.581s5.681-5.94 9.58-4.551l46.035 16.385c3.902 1.389 5.941 5.678 4.551 9.581-1.092 3.071-3.982 4.987-7.065 4.987z" fill="#fde588"/></g><g><path d="m255.957 203.345c-3.083 0-5.973-1.916-7.066-4.987-1.39-3.902.648-8.192 4.551-9.581l46.035-16.385c3.901-1.388 8.192.648 9.58 4.551 1.39 3.902-.648 8.192-4.551 9.581l-46.035 16.385c-.83.295-1.679.436-2.514.436z" fill="#fde588"/></g><g><path d="m255.957 218.508c-4.143 0-7.5-3.358-7.5-7.5v-30.331c0-4.142 3.357-7.5 7.5-7.5s7.5 3.358 7.5 7.5v30.331c0 4.142-3.357 7.5-7.5 7.5z" fill="#ffbc85"/></g><g><path clip-rule="evenodd" d="m267.494 229.207c41.754 43.796 161.886 44.08 161.886-44.59 0-31.21-15.647-48.36-38.012-54.823 6.491 8.929 10.261 20.863 10.261 36.199 0 73.306-82.091 85.807-134.135 63.214z" fill="#ff6d75" fill-rule="evenodd"/></g><g><path clip-rule="evenodd" d="m244.421 229.207c-41.782 43.796-161.914 44.08-161.914-44.59 0-31.21 15.647-48.36 38.012-54.823-6.491 8.929-10.261 20.863-10.261 36.199 0 73.306 82.09 85.807 134.163 63.214z" fill="#ff6d75" fill-rule="evenodd"/></g></g></svg>