<svg id="Layer_1" enable-background="new 0 0 512 512" height="512" viewBox="0 0 512 512" width="512" xmlns="http://www.w3.org/2000/svg"><g><path d="m27.815 188.452v307.529c0 8.847 7.172 16.019 16.019 16.019 8.847 0 16.019-7.172 16.019-16.019v-307.529z" fill="#6b8df2"/><g><path d="m152.636 288.305c-45.88 0-89.051-18.376-115.482-49.154-.023-.027-.046-.053-.068-.08-26.392-30.969-39.124-70.853-36.821-115.341 1.964-37.926 14.997-77.342 36.698-110.987 5.179-8.03 14.015-12.743 23.333-12.743 1.561 0 3.135.132 4.709.403 10.964 1.889 19.752 10.158 22.339 21.021 4.741 19.902 16.378 30.687 64.216 30.687 40.377 0 78.019 14.159 104.438 38.613 26.419-24.457 64.058-38.613 104.438-38.613 44.05 0 57.816-4.027 64.165-30.687 2.588-10.863 11.375-19.132 22.34-21.021 1.572-.271 3.147-.403 4.708-.403 9.319 0 18.155 4.713 23.334 12.744 21.67 33.599 34.716 73.003 36.737 110.952 2.379 44.695-10.386 84.634-36.915 115.496-26.328 30.631-69.082 48.918-114.369 48.918-40.229 0-77.762-14.064-104.169-38.367-11.143 10.516-24.427 19.218-39.215 25.613-19.591 8.471-41.865 12.949-64.416 12.949z" fill="#ffe594"/><g><path d="m511.719 123.696c-2.02-37.95-15.066-77.353-36.736-110.952-5.179-8.031-14.015-12.744-23.334-12.744-1.56 0-3.136.132-4.708.403-6.264 1.079-11.811 4.246-15.904 8.784.993 1.102 1.917 2.282 2.738 3.557 21.67 33.599 34.716 73.003 36.736 110.952 2.379 44.695-10.386 84.634-36.915 115.496-22.306 25.952-56.406 43.038-93.844 47.654 6.784.829 13.691 1.264 20.683 1.264 45.286 0 88.041-18.287 114.369-48.918 26.529-30.862 39.294-70.801 36.915-115.496z" fill="#f7d877"/></g><path d="m152.636 255.238c-36.421 0-70.259-14.083-90.515-37.672-20.788-24.393-30.801-56.253-28.944-92.121 1.485-28.694 10.501-58.507 25.594-85.066 6.448 16.59 17.616 28.266 33.897 35.519 18.462 8.224 41.171 9.279 58.891 9.279 38.02 0 72.529 15.33 92.312 41.008 2.924 3.795 7.344 5.971 12.126 5.971 4.783 0 9.203-2.177 12.126-5.971 19.784-25.678 54.293-41.008 92.312-41.008 34.23 0 76.221-.001 92.8-44.691 15.041 26.51 24.047 56.284 25.574 84.972 1.915 36.005-8.1 67.865-28.963 92.137-20.154 23.448-53.578 37.447-89.411 37.447-37.952 0-72.429-15.289-92.226-40.897-2.932-3.793-7.358-5.968-12.144-5.968-4.853 0-9.303 2.227-12.209 6.11-19.188 25.643-53.289 40.951-91.22 40.951z" fill="#eb67a5"/><g fill="#ebf7ff"><path d="m212.889 170.96s-28.563 29.447-60.299 26.59c-31.735-2.857-54.625-36.936-54.625-36.936s28.563-29.447 60.299-26.59c31.735 2.858 54.625 36.936 54.625 36.936z"/><path d="m299.11 170.96s28.563 29.447 60.299 26.59c31.735-2.857 54.625-36.936 54.625-36.936s-28.563-29.447-60.299-26.59c-31.735 2.858-54.625 36.936-54.625 36.936z"/></g></g></g></svg>