<?xml version="1.0" encoding="iso-8859-1"?>
<!-- Generator: Adobe Illustrator 19.0.0, SVG Export Plug-In . SVG Version: 6.00 Build 0)  -->
<svg version="1.1" id="Layer_1" xmlns="http://www.w3.org/2000/svg" xmlns:xlink="http://www.w3.org/1999/xlink" x="0px" y="0px"
	 viewBox="0 0 512.001 512.001" style="enable-background:new 0 0 512.001 512.001;" xml:space="preserve">
<path style="fill:#88DCE5;" d="M283.691,109.683h-0.002l2.174-3.358h-59.726l2.173,3.358
	c-57.105,344.074-54.848,323.948-51.982,326.74C258.247,516.191,253,511.958,256,511.958c3.006,0-2.413,4.396,79.67-75.535
	C338.539,433.63,340.807,453.842,283.691,109.683z"/>
<path style="fill:#74C4C4;" d="M267.96,110.171l-2.488-3.847h-39.335l2.173,3.358c-57.105,344.074-54.848,323.948-51.982,326.74
	l32.271,31.425L267.96,110.171z"/>
<path style="fill:#88DCE5;" d="M209.408,3.581c-17.014,52.592-17.087,50.48-15.249,53.323l34.15,52.778c19.313,0,35.902,0,55.379,0
	c36.998-57.181,35.76-53.972,34.731-57.172c-3.074-9.502-12.556-38.807-15.831-48.93c-0.69-2.135-2.677-3.58-4.92-3.58
	c-17.345,0-65.997,0-83.341,0C212.085,0.001,210.099,1.446,209.408,3.581z"/>
<path style="fill:#74C4C4;" d="M251.557,3.581c0.689-2.135,2.678-3.58,4.92-3.58c-16.17,0-26.202,0-42.148,0
	c-2.243,0-4.229,1.445-4.92,3.58c-17.014,52.592-17.087,50.48-15.249,53.323l34.15,52.778c15.654,0,26.291,0,42.147,0
	l-34.149-52.778C234.469,54.063,234.544,56.169,251.557,3.581z"/>
<polygon style="fill:#2AB5BC;" points="216.979,177.952 309.82,267.135 298.928,201.499 224.877,130.366 "/>
<polygon style="fill:#2F9FB2;" points="251.248,210.871 259.146,163.284 224.877,130.366 218.174,170.751 216.979,177.952 "/>
<polygon style="fill:#2AB5BC;" points="200.765,275.651 332.188,401.895 321.291,336.26 208.663,228.065 "/>
<polygon style="fill:#2F9FB2;" points="242.931,260.984 208.663,228.065 200.765,275.651 235.033,308.569 "/>
<polygon style="fill:#2AB5BC;" points="284.307,108.728 306.322,74.705 228.556,0.001 210.567,0.001 201.214,28.908 "/>
<path style="fill:#2F9FB2;" d="M209.408,3.581l-8.193,25.327l44.864,43.097c-10.505-16.234-11.324-16.475-10.353-19.494
	l11.26-34.805l-18.43-17.705h-14.228C212.085,0.001,210.099,1.446,209.408,3.581z"/>
<polygon style="fill:#2AB5BC;" points="184.551,373.351 293.231,477.75 321.751,449.977 192.447,325.766 "/>
<polygon style="fill:#2F9FB2;" points="226.717,358.685 192.447,325.766 184.551,373.351 218.819,406.269 "/>
<g>
</g>
<g>
</g>
<g>
</g>
<g>
</g>
<g>
</g>
<g>
</g>
<g>
</g>
<g>
</g>
<g>
</g>
<g>
</g>
<g>
</g>
<g>
</g>
<g>
</g>
<g>
</g>
<g>
</g>
</svg>
