<svg width="41" height="51" viewBox="0 0 41 51" fill="none" xmlns="http://www.w3.org/2000/svg">
<path d="M0 44.6665H9.53534C10.1867 44.6271 10.7985 44.3406 11.2458 43.8654C11.6931 43.3903 11.9421 42.7623 11.9421 42.1098C11.9421 41.4572 11.6931 40.8292 11.2458 40.3541C10.7985 39.8789 10.1867 39.5924 9.53534 39.553H0V44.6665Z" fill="#C4C4C4"/>
<path d="M10.1149 13.256C11.8444 13.256 13.256 11.5172 13.256 9.37642V0H6.98322V9.34837C6.98322 11.5172 8.38547 13.256 10.1149 13.256Z" fill="#C4C4C4"/>
<path d="M9.53534 32.5698H0V37.6833H9.53534C10.1867 37.6439 10.7985 37.3574 11.2458 36.8822C11.6931 36.4071 11.9421 35.7791 11.9421 35.1265C11.9421 34.474 11.6931 33.846 11.2458 33.3709C10.7985 32.8957 10.1867 32.6092 9.53534 32.5698V32.5698Z" fill="#C4C4C4"/>
<path d="M30.4757 44.6665H40.011V39.553H30.4757C29.8243 39.5924 29.2125 39.8789 28.7653 40.3541C28.318 40.8292 28.0689 41.4572 28.0689 42.1098C28.0689 42.7623 28.318 43.3903 28.7653 43.8654C29.2125 44.3406 29.8243 44.6271 30.4757 44.6665V44.6665Z" fill="#C4C4C4"/>
<path d="M40.011 32.5698H30.4757C29.8243 32.6092 29.2125 32.8957 28.7653 33.3709C28.318 33.846 28.0689 34.474 28.0689 35.1265C28.0689 35.7791 28.318 36.4071 28.7653 36.8822C29.2125 37.3574 29.8243 37.6439 30.4757 37.6833H40.011V32.5698Z" fill="#C4C4C4"/>
<path d="M29.8961 15.1256C27.1383 15.1256 24.8854 12.5455 24.8854 9.37638V7.17017C23.6794 9.03984 21.9687 10.4701 20.0055 10.4701C18.0424 10.4701 16.3316 9.03984 15.1257 7.17017V9.34834C15.1257 12.5174 12.8821 15.0976 10.1149 15.0976C8.97279 15.0403 7.88203 14.6052 7.01399 13.8607C6.14595 13.1162 5.54982 12.1044 5.31922 10.9843C4.10153 13.4332 2.2686 15.5238 0 17.0514V30.7H9.53534C10.4591 30.6973 11.3604 30.9846 12.1122 31.5214C12.8639 32.0582 13.4283 32.8174 13.7257 33.692C14.023 34.5665 14.0384 35.5124 13.7697 36.3962C13.5009 37.28 12.9616 38.0571 12.2277 38.6181C12.9616 39.1791 13.5009 39.9562 13.7697 40.84C14.0384 41.7238 14.023 42.6696 13.7257 43.5442C13.4283 44.4188 12.8639 45.178 12.1122 45.7148C11.3604 46.2515 10.4591 46.5388 9.53534 46.5362H0V50.4812H40.011V46.5362H30.4757C29.5519 46.5388 28.6507 46.2515 27.8989 45.7148C27.1471 45.178 26.5827 44.4188 26.2854 43.5442C25.988 42.6696 25.9726 41.7238 26.2413 40.84C26.5101 39.9562 27.0494 39.1791 27.7834 38.6181C27.0494 38.0571 26.5101 37.28 26.2413 36.3962C25.9726 35.5124 25.988 34.5665 26.2854 33.692C26.5827 32.8174 27.1471 32.0582 27.8989 31.5214C28.6507 30.9846 29.5519 30.6973 30.4757 30.7H40.011V17.0794C37.7424 15.5519 35.9095 13.4613 34.6918 11.0123C34.4612 12.1324 33.8651 13.1442 32.997 13.8887C32.129 14.6332 31.0382 15.0683 29.8961 15.1256V15.1256Z" fill="#C4C4C4"/>
<path d="M26.755 1.39291V9.34837C26.755 11.4891 28.1666 13.2279 29.8961 13.2279C31.6255 13.2279 33.0278 11.4891 33.0278 9.34837V0H26.755V1.39291Z" fill="#C4C4C4"/>
</svg>
