<svg width="58" height="39" viewBox="0 0 58 39" fill="none" xmlns="http://www.w3.org/2000/svg">
<path d="M23.1824 15.1782C23.1871 15.1615 23.1871 15.1442 23.1938 15.1256C23.2304 15.0403 23.267 14.9558 23.3036 14.8699C23.3289 14.8119 23.3689 14.7833 23.3989 14.734C23.4035 14.7227 23.4022 14.7087 23.4069 14.6974C23.4082 14.6874 23.4069 14.6781 23.4089 14.6681C23.4874 14.2892 23.7911 13.6878 23.8131 13.4434C23.8291 13.263 23.8903 13.0985 23.9396 12.9307C23.9809 12.1582 23.9629 11.4177 23.5014 10.7251C23.0666 10.0725 22.5158 9.54173 21.9351 9.03962C21.5782 8.88179 21.2219 8.72663 20.861 8.58146C20.5986 8.56681 20.3735 8.50288 20.1658 8.4183C7.91727 14.9911 -0.409548 23.2053 0.07858 28.1732C0.0739185 28.1639 0.0625976 28.1552 0.0579361 28.1432L0 28.1732L0.0579361 28.1459C0.187127 28.4083 0.362933 28.6633 0.594678 28.9264L0.657275 29.0043C0.852393 29.2134 1.09879 29.4191 1.38647 29.6156C1.43575 29.6522 1.47437 29.6802 1.51633 29.7075C1.7847 29.8813 2.09636 30.0431 2.43864 30.1823L2.62111 30.2622C2.98271 30.4014 3.36096 30.5199 3.74454 30.6112C3.79515 30.6251 3.83977 30.6338 3.88372 30.6451C4.39649 30.7597 5.12169 30.8576 5.0471 30.8462C5.03778 30.8442 5.02646 30.8442 5.01847 30.8396C5.06974 30.7204 5.10371 30.6065 5.16364 30.486C5.17762 30.4607 5.18428 30.4334 5.1976 30.4061C5.21225 30.3761 5.23556 30.3468 5.25021 30.3142C5.47396 29.876 5.74766 29.4238 6.05932 28.963C6.15521 28.8171 6.27042 28.6713 6.3743 28.5228C6.62536 28.1739 6.89573 27.8169 7.19274 27.4566C7.39851 27.2096 7.60628 26.9585 7.83203 26.7075C7.93725 26.5889 8.03847 26.4724 8.14835 26.3565C8.52327 25.9503 8.9175 25.5388 9.34237 25.1252C9.35968 25.1099 9.37433 25.0913 9.39298 25.0753C9.84714 24.6351 10.3333 24.1876 10.8427 23.7401C10.9553 23.6395 11.0778 23.541 11.193 23.4384C11.5526 23.1327 11.9262 22.8198 12.3098 22.5094C12.7386 22.1605 13.1908 21.8102 13.6483 21.4613C13.9113 21.2595 14.1644 21.059 14.4361 20.8599C15.1693 20.3212 15.9271 19.7824 16.7236 19.2464C16.8514 19.1598 16.9906 19.0752 17.1211 18.9906C17.7671 18.5611 18.429 18.1323 19.1129 17.7087C19.4319 17.5123 19.7615 17.3198 20.0865 17.124C20.6179 16.8057 21.1547 16.4861 21.7074 16.1731C21.9997 16.0066 22.2974 15.8434 22.5944 15.679L22.9607 15.4872C23.016 15.3713 23.0885 15.2681 23.1824 15.1782ZM9.99298 21.0723C9.49753 21.5618 8.7943 21.653 8.42271 21.2735C8.04912 20.8985 8.14768 20.196 8.64314 19.7092C9.13726 19.2184 9.83849 19.1272 10.2114 19.5014C10.5843 19.8803 10.4871 20.5842 9.99298 21.0723ZM13.4085 18.3407C12.8645 18.7755 12.1579 18.7942 11.827 18.374C11.498 17.9618 11.6718 17.2739 12.2172 16.8423C12.7606 16.4102 13.4691 16.3948 13.7995 16.8097C14.1284 17.2239 13.9539 17.9118 13.4085 18.3407ZM17.0492 15.9906C16.4765 16.3842 15.7673 16.3489 15.4676 15.914C15.1686 15.4759 15.391 14.8046 15.9644 14.411C16.5384 14.0175 17.245 14.0501 17.5453 14.4876C17.845 14.9245 17.6239 15.5971 17.0492 15.9906Z" fill="#C4C4C4"/>
<path d="M53.9545 2.89367L53.9405 2.79978C53.9358 2.73851 53.9265 2.67858 53.9179 2.62131C53.8486 2.28568 53.758 2.01797 53.6435 1.77557C50.2925 -1.35964 40.211 -0.252858 28.7503 4.38469C28.6597 4.43464 28.5525 4.46128 28.442 4.48525C28.3367 5.04064 28.1636 5.55141 27.9811 6.0988C27.7847 7.11235 27.7734 8.13789 28.087 9.19273C28.1137 9.2813 29.2031 10.8829 30.0295 11.1912C30.0895 11.2132 30.1261 11.2538 30.176 11.2824C30.5043 11.3816 30.8426 11.4596 31.1876 11.5168C31.1996 11.5102 31.2082 11.5062 31.2196 11.5022C31.8242 11.2511 32.4182 11.0167 33.0162 10.785C33.3172 10.6684 33.6236 10.5419 33.9199 10.43C34.8076 10.0971 35.684 9.78474 36.545 9.49772C36.8414 9.39983 37.129 9.31726 37.4234 9.22336C37.9734 9.04755 38.5262 8.87308 39.0649 8.71525C39.4398 8.60804 39.8001 8.5168 40.1677 8.41891C40.6605 8.28639 41.1519 8.15587 41.6281 8.04199C41.9637 7.96075 42.2927 7.89016 42.621 7.81957C43.1164 7.71236 43.6032 7.61247 44.0781 7.5259C44.3884 7.46796 44.6967 7.41336 44.9984 7.36607C45.3886 7.30348 45.7649 7.24954 46.1398 7.20159C46.4434 7.16296 46.7444 7.12767 47.0368 7.0977C47.4004 7.06108 47.7493 7.03577 48.0963 7.01513C48.37 6.99848 48.649 6.9825 48.914 6.97384C49.2497 6.96452 49.5667 6.96918 49.8843 6.97717C50.1307 6.98183 50.3818 6.98516 50.6175 7.00048C50.9205 7.01846 51.2062 7.05442 51.4899 7.08905C51.7043 7.11702 51.9234 7.13699 52.1238 7.17495C52.3476 7.21357 52.542 7.27218 52.7478 7.32345C52.7452 7.32545 52.7452 7.32945 52.7452 7.33145C52.9369 6.99582 53.1128 6.66019 53.2333 6.40314C53.2766 6.30591 53.3205 6.20469 53.3611 6.10413L53.4337 5.91567C53.5343 5.66661 53.6328 5.41689 53.7081 5.17116C53.7534 5.014 53.792 4.85817 53.8293 4.70101C53.8812 4.47526 53.9232 4.25484 53.9458 4.03908C53.9685 3.87259 53.9778 3.70678 53.9825 3.54828C53.9911 3.31521 53.9791 3.09745 53.9545 2.89367Z" fill="#C4C4C4"/>
<path d="M57.6844 9.89792C57.675 9.80469 57.6684 9.70946 57.6497 9.62022C57.6424 9.57228 57.6424 9.521 57.6338 9.47572C57.5791 9.23931 57.5019 9.0109 57.3987 8.79047C57.3867 8.7625 57.3734 8.73453 57.3574 8.7039L54.4579 2.81839C54.4506 2.8084 54.4459 2.80174 54.4373 2.79242C54.4579 2.81506 54.4599 2.84836 54.4806 2.871C54.5052 3.08876 54.5192 3.3205 54.5099 3.56623C54.5052 3.73937 54.4959 3.92251 54.4732 4.10364C54.4459 4.34005 54.4027 4.58045 54.3434 4.82485C54.3068 4.99066 54.2635 5.15714 54.2135 5.32829C54.1316 5.58734 54.0311 5.85304 53.9258 6.11809L53.8506 6.30521C53.8073 6.41176 53.7634 6.51631 53.7134 6.63085C53.5563 6.96049 53.3432 7.38535 53.0814 7.82287C53.0588 7.86483 53.0268 7.91144 52.9969 7.95539L52.9576 8.01799C52.7245 8.40357 52.4555 8.80579 52.1358 9.24264L52.0992 9.29858C52.0746 9.33654 52.0492 9.37183 52.0239 9.40513C51.7616 9.7614 51.4492 10.1516 51.0197 10.6597C50.9218 10.7769 50.8159 10.8935 50.7141 11.0114L50.5835 11.1585C50.3052 11.4735 50.0108 11.7932 49.7025 12.1101C49.554 12.27 49.4042 12.4298 49.2443 12.5896C48.8514 12.9832 48.4359 13.3794 48.005 13.7816L47.9178 13.8635C47.8659 13.9162 47.8133 13.9654 47.754 14.0154C47.2905 14.4389 46.7697 14.8917 46.1597 15.3979C45.3633 16.0625 44.6301 16.6445 43.9209 17.1786C43.229 17.6967 42.4898 18.2267 41.4896 18.9133C41.3137 19.0345 41.1293 19.155 40.9468 19.2742L40.6272 19.4887C40.0904 19.843 39.5497 20.1966 38.993 20.5455C38.7532 20.698 38.5068 20.8492 38.2578 20.9977L37.9788 21.1642C37.4174 21.5084 36.8467 21.8454 36.2627 22.175C36.0502 22.2982 35.8331 22.4214 35.6114 22.5446L35.3996 22.6658C33.9172 23.4856 32.7532 24.1016 31.6211 24.659C30.8746 25.0239 30.1354 25.3669 29.3956 25.7045C28.8235 25.9649 28.2568 26.2113 27.6881 26.4577C27.2912 26.6315 26.903 26.8046 26.5174 26.9598C25.9294 27.2015 25.3487 27.4299 24.7693 27.6537L24.2992 27.8341C24.0947 27.9114 23.893 27.9913 23.6905 28.0646C23.0399 28.3063 22.3973 28.528 21.7547 28.7445L21.3957 28.8683C21.2326 28.9276 21.0661 28.9822 20.9076 29.0375C20.223 29.2612 19.5058 29.4757 18.5822 29.736L18.4749 29.7727C18.3824 29.8 18.2865 29.8299 18.1966 29.8572C17.3155 30.0963 16.4305 30.3201 15.4949 30.5305C15.3397 30.5678 15.1912 30.5951 15.0414 30.6244L14.7724 30.6817C14.1637 30.8095 13.559 30.9234 12.9783 31.0286C12.363 31.1332 11.7603 31.2271 11.1783 31.2997L10.9179 31.325C10.2254 31.4069 9.60805 31.4668 9.03135 31.4988C8.99806 31.5034 8.94878 31.5034 8.90016 31.5034C8.21092 31.5401 7.63356 31.5514 7.10681 31.5447H7.03755C6.46352 31.5287 5.92611 31.4901 5.39603 31.4328L5.22688 31.4169C4.7574 31.3596 4.2999 31.2823 3.82842 31.1771C3.71854 31.1545 3.66527 31.1405 3.61266 31.1272C3.21577 31.0313 2.81354 30.9034 2.42797 30.7523L2.2748 30.691C1.86259 30.5192 1.52496 30.346 1.22796 30.1516C1.17535 30.1176 1.12873 30.085 1.07945 30.049C0.828398 29.8806 0.625288 29.6908 0.429504 29.5016L3.30567 35.3392C3.46882 35.6702 3.68791 35.9665 3.94829 36.2389C4.03353 36.3301 4.15007 36.4007 4.24596 36.4853C4.44041 36.6518 4.63487 36.8209 4.86928 36.9647C5.00846 37.0493 5.17494 37.1172 5.3281 37.1912C5.55985 37.3097 5.79159 37.4242 6.05264 37.5148C6.23843 37.5834 6.44287 37.636 6.64265 37.6933C6.91302 37.7685 7.18605 37.8418 7.4804 37.899C7.70615 37.9443 7.94522 37.9763 8.18628 38.0083C8.49395 38.0502 8.80693 38.0882 9.13724 38.1135C9.39628 38.1335 9.66266 38.1454 9.93302 38.1548C10.2846 38.1687 10.6436 38.1687 11.0158 38.1641C11.2955 38.1594 11.5799 38.1501 11.8709 38.1341C12.2718 38.1161 12.686 38.0822 13.1095 38.0429C13.3959 38.0156 13.6816 37.9903 13.9779 37.9563C14.4527 37.899 14.9435 37.8258 15.439 37.7465C15.6287 37.7166 15.8045 37.7006 15.997 37.6666C16.0736 37.6546 16.1582 37.632 16.2354 37.6213C16.8587 37.5068 17.5 37.3743 18.152 37.2331C18.3697 37.1852 18.5802 37.1459 18.8012 37.0959C19.5398 36.9221 20.2963 36.7263 21.0654 36.5166C21.2152 36.4746 21.3558 36.4433 21.5063 36.402C21.8739 36.2975 22.2574 36.1663 22.6317 36.0531C23.1325 35.9019 23.6306 35.7541 24.1407 35.5876C24.4896 35.473 24.8466 35.3432 25.1989 35.22C25.7582 35.0255 26.3163 34.8364 26.887 34.622C26.9909 34.5854 27.0914 34.5534 27.1953 34.5121C27.5156 34.3909 27.8459 34.2497 28.1689 34.1245C28.6837 33.9234 29.1971 33.7223 29.7179 33.5052C30.1474 33.3274 30.5783 33.1376 31.0098 32.9505C31.5252 32.7247 32.044 32.4983 32.5641 32.2613C32.7405 32.1793 32.9157 32.1088 33.0941 32.0262C33.6715 31.7545 34.2555 31.4761 34.8382 31.1878C36.1281 30.5511 37.3654 29.8919 38.5794 29.2206C38.7166 29.1427 38.8651 29.0741 39.0016 28.9962C39.1781 28.9003 39.3373 28.7977 39.5111 28.6999C40.0478 28.3915 40.5752 28.0832 41.0953 27.7689C41.4816 27.5378 41.8671 27.3081 42.2421 27.075C42.7508 26.7593 43.2396 26.4403 43.7258 26.12C43.9775 25.9562 44.2439 25.7964 44.4889 25.6319C44.5688 25.5773 44.6374 25.5247 44.7173 25.4727C45.4186 24.9926 46.0938 24.5158 46.7491 24.0343C46.8816 23.9384 47.0228 23.8452 47.1526 23.7466C47.9198 23.1759 48.6483 22.6026 49.3422 22.0319C49.3922 21.9932 49.4448 21.9526 49.4927 21.9153C50.0022 21.4931 50.4883 21.0743 50.9565 20.6541C51.0264 20.5901 51.091 20.5262 51.1642 20.4623C51.6097 20.056 52.0366 19.6545 52.4428 19.2523C52.598 19.1018 52.7392 18.9553 52.8857 18.8048C53.2006 18.4851 53.5023 18.1648 53.7873 17.8472C53.9272 17.6947 54.0684 17.5388 54.2009 17.385C54.2781 17.2958 54.3654 17.2045 54.4399 17.118C54.5452 16.9934 54.6204 16.8762 54.721 16.753C55.02 16.3868 55.301 16.0232 55.5567 15.6676C55.7006 15.4658 55.8397 15.2667 55.9696 15.0709C56.2053 14.7113 56.4124 14.361 56.6022 14.0127C56.6688 13.8975 56.7594 13.773 56.8167 13.6564C56.8486 13.5958 56.8666 13.5399 56.8939 13.482C56.9758 13.3128 57.0424 13.149 57.113 12.9832C57.2202 12.7301 57.3208 12.4797 57.4007 12.234C57.4533 12.0729 57.4946 11.9137 57.5332 11.7532C57.5652 11.6267 57.6151 11.4962 57.6378 11.3723C57.6584 11.2717 57.6517 11.1818 57.6657 11.0859C57.6884 10.9135 57.7023 10.7456 57.707 10.5805C57.7117 10.4833 57.7363 10.3821 57.7343 10.2862C57.7303 10.151 57.703 10.0264 57.6844 9.89792Z" fill="#C4C4C4"/>
</svg>
