<svg width="58" height="21" viewBox="0 0 58 21" fill="none" xmlns="http://www.w3.org/2000/svg">
<path d="M32.6435 5.69012C31.598 5.04318 30.3459 4.66667 29 4.66667C27.6389 4.66667 26.3736 5.05176 25.321 5.71222C25.032 3.79478 24.5723 2.22228 23.9453 1.63373C22.759 0.520136 18.5931 0 14.0857 0C9.29849 0 5.48531 0.451738 4.22612 1.63373C3.67636 2.14979 3.27002 3.24796 2.98886 4.66667H0.82842C0.370901 4.66667 0 5.0115 0 5.45173V6.99271C0 7.42629 0.367659 7.77778 0.82842 7.77778H2.59353C2.52046 8.78123 2.48571 9.83541 2.48571 10.8889C2.48571 16.7995 7.54267 21 14.0857 21C20.6288 21 25.6857 16.7995 25.6857 10.8889C25.6857 9.17067 27.1696 7.77778 29 7.77778C30.8304 7.77778 32.3143 9.17067 32.3143 10.8889C32.3143 16.7995 37.3712 21 43.9143 21C50.4573 21 55.5143 16.7995 55.5143 10.8889C55.5143 9.8729 55.4715 8.8098 55.3863 7.77778H57.1716C57.6291 7.77778 58 7.43295 58 6.99271V5.45173C58 5.01815 57.6323 4.66667 57.1716 4.66667H54.9675C54.6809 3.23571 54.2824 2.11108 53.7739 1.63373C52.5876 0.520136 48.4217 0 43.9143 0C39.1271 0 35.3139 0.451738 34.0547 1.63373C33.3789 2.26814 32.9197 3.78224 32.6435 5.69012Z" fill="#C4C4C4"/>
</svg>
