<svg width="59" height="38" viewBox="0 0 59 38" fill="none" xmlns="http://www.w3.org/2000/svg">
<path d="M36.4846 1.26105C36.4881 1.26105 36.4917 1.26105 36.4952 1.26105C36.5113 1.26105 36.5275 1.26245 36.5437 1.26245C37.0329 1.26386 37.5207 1.27651 38.0043 1.29549C38.0739 1.2983 38.1456 1.29689 38.2152 1.30041C38.0022 0.551093 37.312 0 36.4952 0C35.6812 0 34.9923 0.546173 34.7772 1.29197C34.8363 1.28987 34.9002 1.29057 34.96 1.28846C35.4569 1.273 35.9645 1.26105 36.4846 1.26105Z" fill="#C4C4C4"/>
<path d="M3.37971 33.6932C4.98799 33.6932 6.72914 33.3931 8.28049 32.849C9.38478 32.4617 10.7442 32.2656 12.3216 32.2656C17.0516 32.2656 23.0756 33.9892 27.9167 35.3746C30.7635 36.1893 33.2216 36.8922 34.6563 37.023C38.2595 37.3569 44.415 33.7396 46.9842 32.2403C47.1473 32.1447 47.2843 32.066 47.408 31.9936C39.7609 27.1005 15.9698 26.4531 14.365 26.4152C10.7878 27.5954 1.50993 30.8893 0.19054 32.4055C0.0787746 32.5348 -0.0428312 32.7148 0.0148085 32.8413C0.164531 33.1717 1.21048 33.6932 3.37971 33.6932Z" fill="#C4C4C4"/>
<path d="M48.6058 31.5493C49.067 31.5957 49.526 31.6224 50.0166 31.6224C53.2451 31.6224 57.1864 30.6805 58.5796 30.3192C58.361 29.4806 58.2837 28.1612 58.186 26.5206C57.7101 18.4897 56.8244 3.5413 38.7755 2.38639C37.2838 2.2922 35.6503 2.29712 34.2093 2.37304C26.553 2.76738 21.0091 5.18544 17.7299 9.56114C13.2347 15.5592 14.3763 23.5261 14.7186 25.3685C18.2466 25.4592 41.5928 26.2535 48.6058 31.5493Z" fill="#C4C4C4"/>
</svg>
