<svg width="65" height="65" viewBox="0 0 65 65" fill="none" xmlns="http://www.w3.org/2000/svg">
<path d="M43.9189 11.6746V16.3445H37.0675C36.6108 16.3445 36.3824 16.3445 35.9256 16.578L32.5 18.4459L29.0743 16.578C28.6175 16.3445 28.3892 16.3445 27.9324 16.3445H21.0811V11.6746C21.0811 5.13684 26.1054 0 32.5 0C38.8946 0 43.9189 5.13684 43.9189 11.6746Z" fill="#C4C4C4"/>
<path d="M29.8649 22.6705L27.1081 21.2902H22.973C21.8243 21.2902 20.6757 20.14 20.6757 18.9897V16.6892H16.0811H15.8513H14.9324C11.9459 16.6892 9.18919 18.7596 8.27027 21.7503L0 52.8073C0 53.4974 1.02697e-07 54.4176 0.45946 54.8777C0.918919 55.3378 1.60811 55.7979 2.2973 55.7979H11.4865C12.4054 55.7979 13.3243 55.1078 13.7838 54.1876L15.8513 47.7461L16.0811 62.6995C16.0811 64.0798 17.2297 65 18.3784 65H29.8649V22.6705ZM25.2703 55.7979C23.8919 55.7979 22.973 54.8777 22.973 53.4974V46.5959C22.973 45.2156 23.8919 44.2954 25.2703 44.2954C26.6486 44.2954 27.5676 45.2156 27.5676 46.5959V53.4974C27.5676 54.8777 26.6486 55.7979 25.2703 55.7979Z" fill="#C4C4C4"/>
<path d="M64.9427 52.8073L56.6883 21.7503C55.7711 18.7596 53.0197 16.6892 50.0389 16.6892H44.3067V18.9897C44.3067 20.14 43.1602 21.2902 42.0138 21.2902H37.8866L35.1351 22.6705V65H46.5996C47.746 65 48.8925 64.0798 48.8925 62.6995L49.351 47.7461L51.4146 54.1876C51.6439 55.1078 52.5611 55.7979 53.7075 55.7979H62.8791C63.5669 55.7979 64.2548 55.5679 64.7134 54.8777C65.172 54.1876 64.9427 53.4974 64.9427 52.8073ZM42.0138 53.4974C42.0138 54.8777 41.0966 55.7979 39.7209 55.7979C38.3452 55.7979 37.428 54.8777 37.428 53.4974V46.5959C37.428 45.2156 38.3452 44.2954 39.7209 44.2954C41.0966 44.2954 42.0138 45.2156 42.0138 46.5959V53.4974Z" fill="#C4C4C4"/>
</svg>
