<svg width="66" height="64" viewBox="0 0 66 64" fill="none" xmlns="http://www.w3.org/2000/svg">
<path d="M1.3138 63.5725C0.384958 63.8511 -0.265229 62.9223 0.106307 62.0863C2.42841 56.4204 15.6179 35.8931 24.1632 32.2706L23.6988 31.7133C23.2344 31.156 23.3273 30.4129 23.8846 29.9485L25.2779 28.741C25.5565 28.5552 25.8352 28.4624 26.1138 28.4624H27.6C27.8786 28.4624 28.1573 28.3695 28.4359 28.1837C31.1295 26.0474 48.8704 11.7432 53.2359 3.66234C57.973 -5.06875 71.7198 3.66234 63.3603 10.6286C63.3603 10.6286 38.1887 31.8062 36.0524 36.3575C35.9595 36.5433 35.9595 36.729 35.9595 36.9148L36.1453 39.144C36.1453 39.4227 36.0524 39.7013 35.9595 39.98L35.2164 41.0946C34.8449 41.6519 34.1018 41.8376 33.4516 41.4661C32.9872 41.1874 32.337 41.1874 31.8726 41.6519C28.343 44.9957 12.4599 60.5073 1.3138 63.5725Z" fill="#C4C4C4"/>
</svg>
