<svg width="30" height="51" viewBox="0 0 30 51" fill="none" xmlns="http://www.w3.org/2000/svg">
<path d="M29.9161 22.1712C29.6159 19.8889 29.0156 16.4655 29.4958 14.964C29.9761 13.4625 30.3363 10.8799 29.4958 9.31839C28.6554 7.81689 27.995 5.41449 27.995 4.33341C27.995 3.25233 26.254 1.21029 24.5731 1.27035C21.5113 1.39047 19.8304 0.249332 14.9076 0.0691521C14.9076 0.0691521 7.58351 -0.591508 4.82196 2.17125C2.06041 4.87395 1.88031 8.35743 1.76024 10.7598C1.64017 13.1622 0.139328 16.1652 0.139328 17.3064C0.139328 18.4475 0.859734 20.2493 0.859734 21.931C0.859734 23.6127 1.88031 28.5376 1.82027 30.2793C1.76024 32.0211 1.1599 35.1442 1.76024 36.0451C2.36058 36.946 3.86142 41.1502 2.66075 42.1712C1.46007 43.2523 -1.00131 45.0541 0.439497 46.6757C1.94034 48.2973 4.34169 49.3784 5.48233 49.3784C6.62297 49.3784 7.94372 48.5976 8.90426 48.5976C9.8648 48.5976 14.0071 51 17.7893 51C21.5714 51 24.1528 46.2553 25.1134 46.2553C26.0739 46.2553 28.2351 46.3153 28.2351 45.0541C28.2351 43.7928 26.314 43.3724 26.0739 42.3514C25.7737 41.3303 24.8132 37.3664 26.4341 33.8229C28.1151 30.2193 30.1562 24.4535 29.9161 22.1712ZM13.767 19.6487C12.5063 20.8499 10.285 23.973 7.94372 23.973C5.66243 23.973 4.46176 21.931 4.46176 20.0091C4.46176 18.0871 6.56294 15.985 7.94372 16.1052C7.94372 16.1052 8.54405 15.985 9.08436 16.1052C9.62466 16.2253 14.9677 18.4475 13.767 19.6487ZM22.8921 23.973C20.6108 23.973 18.3296 20.8499 17.0688 19.6487C15.8081 18.4475 21.1511 16.2253 21.7515 16.1052C22.2918 15.985 22.8921 16.1052 22.8921 16.1052C24.3329 15.985 26.3741 18.0871 26.3741 20.0091C26.3741 21.931 25.1734 23.973 22.8921 23.973Z" fill="#C4C4C4"/>
</svg>
