<svg width="50" height="57" viewBox="0 0 50 57" fill="none" xmlns="http://www.w3.org/2000/svg">
<path fill-rule="evenodd" clip-rule="evenodd" d="M4.60621 2.03346L0.0339002 54.875C-0.321658 56.999 2.23691 56.9306 2.23691 56.9306L15.409 56.9984C17.9682 56.9984 17.8966 54.8743 17.8966 54.8743C17.8966 54.8743 22.6588 22.8134 22.8008 21.7859C22.9428 20.7584 23.8675 19.5941 25.0754 19.7303C26.8526 19.8671 27.2075 21.9227 27.2075 21.9227L31.8278 54.8743C31.9697 56.5873 34.0314 56.9984 34.0314 56.9984H47.6537C49.3599 57.0668 50 54.9434 50 54.5323C50 54.1211 45.8299 3.69951 45.3324 2.12405C44.8342 0.549225 43.1287 0 43.1287 0C43.1287 0 8.23014 0.114659 6.6666 0.0462438C6.66726 0.0468773 5.3883 0.11466 4.60621 2.03346Z" fill="#C4C4C4"/>
</svg>
