<svg width="40" height="66" viewBox="0 0 40 66" fill="none" xmlns="http://www.w3.org/2000/svg">
<path d="M33.1034 0H6.89655C3.10345 0 0 3.03061 0 6.73469V59.2653C0 62.9694 3.10345 66 6.89655 66H33.1034C36.8966 66 40 62.9694 40 59.2653V6.73469C40 3.03061 36.8966 0 33.1034 0ZM19.7931 62.4306C17.931 62.4306 16.3448 60.949 16.3448 59.0633C16.3448 57.2449 17.8621 55.6959 19.7931 55.6959C21.7241 55.6959 23.2414 57.1775 23.2414 59.0633C23.2414 60.949 21.6552 62.4306 19.7931 62.4306ZM34.4828 53.2041H5.51724V8.7551H34.4828V53.2041Z" fill="#C4C4C4"/>
</svg>
