<svg width="72" height="72" viewBox="0 0 72 72" fill="none" xmlns="http://www.w3.org/2000/svg">
<path d="M70.7 59.1444L54.2 45.2444L51.9 42.7444L50 37.6444L47.2 35.2444L46.8 35.5444L46 34.8444L46.9 33.7444C47.5 32.9444 47.5 31.8444 46.8 31.1444C46 30.4444 44.8 30.5444 44.1 31.3444L43.3 32.3444L18.5 11.3444C18.4 11.2444 18.3 10.9444 18.5 10.8444L18.6 10.6444C18.7 10.4444 18.7 10.2444 18.6 10.1444L17.4 9.14444C17.2 9.04444 17 9.04444 16.9 9.14444L16.7 9.34444C16.6 9.54444 16.3 9.54444 16.2 9.34444L9.4 3.74444C9.3 3.64444 9.3 3.54444 9.3 3.44444L11.5 0.844444C11.6 0.744444 11.6 0.644444 11.5 0.544444L10.9 0.0444444C10.8 0.0444444 10.8 -0.0555556 10.7 0.0444444L8.7 0.944444C8.7 0.944444 8.6 0.944444 8.6 1.04444L7.8 2.04444C7.7 2.14444 7.6 2.14444 7.5 2.14444C7.4 2.04444 7.3 2.04444 7.2 2.14444L5.8 3.84444C5.8 3.94444 5.8 3.94444 5.8 4.04444L5.9 4.14444C6 4.14444 6 4.24444 5.9 4.34444L5.3 5.14444C5.3 5.24444 5.2 5.24444 5.1 5.14444L4.8 4.94444C4.7 4.94444 4.7 4.84444 4.8 4.74444L5 4.54444C5 4.44444 5 4.44444 5 4.34444L4.6 4.04444H4.5H3.7H3.6L1.5 2.14444C1.4 2.14444 1.4 2.14444 1.3 2.14444L0 3.64444C0 3.74444 0 3.74444 0 3.84444L3.5 6.74444C3.6 6.74444 3.6 6.84444 3.5 6.94444V7.04444C3.5 7.14444 3.5 7.14444 3.5 7.24444L4.9 8.44444C5 8.54444 5.1 8.54444 5.2 8.44444C5.3 8.34444 5.4 8.34444 5.5 8.44444C5.6 8.54444 5.6 8.64444 5.5 8.64444V8.74444C5.4 8.84444 5.4 8.94444 5.5 9.04444L6.6 10.0444L23 25.1444C23.2 25.3444 23.3 25.7444 23.1 25.9444L21.3 28.0444C21.3 28.0444 21.3 28.1444 21.2 28.1444C20.8 28.4444 17.3 31.2444 12.3 34.0444C11.8 34.3444 11.6 34.8444 11.8 35.3444L12.4 37.1444C12.6 37.7444 13.3 38.0444 13.9 37.7444C17.1 36.1444 20.5 34.2444 22.7 32.2444C23 32.0444 23.4 32.0444 23.6 32.3444C23.9 32.8444 24.5 33.4444 25.1 33.9444C25.3 34.1444 25.4 34.3444 25.3 34.6444L23.9 38.5444C23.8 38.8444 23.9 39.1444 24.1 39.3444L27.9 42.5444C28 42.6444 28.1 42.6444 28.2 42.6444L30.6 43.1444C30.8 43.1444 31 43.3444 31.1 43.5444C31.3 44.0444 31.5 44.8444 31 45.3444C30.8 45.4444 30.8 45.7444 30.8 45.9444C30.9 46.5444 30.9 47.8444 30.1 48.4444C29.9 48.5444 29.8 48.8444 29.9 49.0444C30 49.6444 30 50.8444 29.4 51.6444C29.2 51.9444 29.2 52.3444 29.4 52.5444L29.8 52.9444C29.9 53.0444 30 53.1444 30.1 53.1444L34.5 53.9444C34.8 54.0444 35.1 53.8444 35.2 53.6444C35.9 52.5444 37.5 49.3444 36.6 44.1444C36.5 43.8444 36.7 43.5444 37 43.3444L38.4 42.7444C38.5 42.5444 38.6 42.5444 38.8 42.5444L40.4 42.7444C40.5 42.7444 40.7 42.8444 40.8 42.9444L43.8 45.4444C43.8 45.4444 43.9 45.4444 43.9 45.5444C44.4 45.8444 48.5 48.3444 50.1 51.0444L60.7 70.6444C61 71.1444 61.7 71.2444 62.1 70.7444L70.9 60.3444C71.1 59.9444 71.1 59.4444 70.7 59.1444ZM31 42.3444L28.6 41.8444C28.5 41.8444 28.5 41.8444 28.4 41.7444L25.5 39.3444C25 38.9444 24.9 38.3444 25.1 37.7444L26.1 35.1444C26.2 34.9444 26.5 34.8444 26.7 35.0444L29.9 37.7444C30.1 37.8444 30.1 38.1444 29.9 38.3444C29.1 39.1444 27.9 39.0444 27.4 39.0444C27.3 39.0444 27.1 39.1444 27.1 39.2444C27 39.4444 27.1 39.6444 27.3 39.7444C28.7 40.4444 30.3 39.8444 31.2 39.2444C31.3 39.1444 31.5 39.1444 31.7 39.2444L32.3 39.7444C32.4 39.8444 32.5 40.0444 32.4 40.1444L31.5 42.2444C31.4 42.3444 31.2 42.4444 31 42.3444Z" fill="#C4C4C4"/>
</svg>
