<svg width="71" height="72" viewBox="0 0 71 72" fill="none" xmlns="http://www.w3.org/2000/svg">
<path d="M61.242 68.7C61.742 64.8 62.842 53.2 60.342 46.3C60.342 46.3 58.142 40.8 61.742 38.6C61.742 38.6 63.942 36.6 67.142 37.7C70.242 38.7 71.042 29.7 70.342 27.8C70.342 27.7 70.342 27.6 70.242 27.5L70.042 23.4C70.042 23.3 70.042 23.1 69.942 23L68.442 19.6C68.342 19.3 68.042 19 67.642 18.9L66.542 18.6C65.942 18.4 65.542 17.8 65.742 17.2C65.942 16.6 65.542 15.9 64.942 15.8H64.742C64.242 15.7 63.642 15.9 63.442 16.4L63.242 16.6C62.942 17.1 62.442 17.3 61.842 17.2L42.842 11.6C42.642 11.5 42.442 11.6 42.342 11.7C42.242 11.8 42.042 11.9 41.842 11.8L31.642 9C31.542 9 31.442 8.9 31.442 8.9L31.042 8.5C30.942 8.4 30.942 8.4 30.842 8.4L9.94202 2.5C9.74202 2.4 9.64202 2.3 9.54202 2.1L9.44202 0.9C9.44202 0.7 9.24202 0.5 9.04202 0.5L7.44202 0C7.24202 0 7.14202 2.23517e-08 6.94202 0.1L5.94202 0.9C5.94202 1 5.74202 1.1 5.54203 1L4.74202 0.8C4.64202 0.8 4.44202 0.8 4.34202 0.8L3.64202 1.2C3.54202 1.3 3.44202 1.4 3.34202 1.5L0.542025 11.8C0.542025 11.8 -0.857975 16.2 0.842025 17.6C1.04202 17.7 1.14202 17.9 1.04202 18.1C0.942025 18.4 1.14202 18.6 1.34202 18.7L3.54202 19.3L18.442 23.5C19.142 23.7 19.842 24.2 20.242 24.8C20.642 25.5 21.042 26.3 20.842 27.2L19.242 32.5C19.242 32.6 19.142 32.7 19.142 32.8L18.142 34.1C17.742 34.6 18.142 35.3 18.742 35.2C18.842 35.2 18.942 35.2 19.142 35.3C20.442 36 29.742 40.6 36.542 40.2C36.642 40.2 36.842 40.2 36.942 40.2C37.542 40.3 38.942 40.6 40.042 42.3C40.242 42.5 40.342 42.8 40.342 43.1C40.542 44.1 40.842 46.8 40.342 49.3C40.342 49.5 40.242 49.7 40.242 49.9C40.242 51.1 40.242 55.4 40.942 58C41.042 58.5 41.042 58.9 40.942 59.4L39.942 62.9C39.642 63.9 39.042 64.7 38.142 65.3L36.942 66C36.342 66.4 36.542 67.3 37.242 67.4L41.442 68C41.642 68 41.842 68.1 41.942 68.1C43.642 68.6 53.042 71.2 56.242 71.1C56.742 71.1 57.142 70.7 57.342 70.3C57.542 69.7 58.142 69.3 58.742 69.5L59.842 69.8C60.442 69.8 61.142 69.4 61.242 68.7ZM31.642 38.1C30.142 37.7 28.942 36.9 28.142 35.9C28.042 35.8 27.942 35.7 27.742 35.6C27.542 35.5 27.342 35.6 27.242 35.6C26.342 36 25.242 36.2 24.142 35.9C22.542 35.5 21.442 34.3 21.042 32.8C20.942 32.5 20.842 32.1 20.842 31.7C20.842 31.3 20.842 30.9 21.042 30.5C21.142 30.3 21.142 30.1 21.242 29.9C21.342 29.6 21.542 29.3 21.542 29L22.242 26.5C22.542 25.3 23.742 24.7 24.942 25L31.542 26.8C31.942 26.9 32.142 27.3 32.042 27.7C31.542 30.4 28.842 31.7 27.742 32.2C27.442 32.3 27.242 32.6 27.242 32.9C27.242 33.3 27.542 33.6 27.942 33.7C31.342 33.9 33.842 30.7 35.042 28.6C35.242 28.3 35.642 28.1 36.042 28.3C38.642 29.6 40.142 32 39.442 34.5C38.642 37.5 35.142 39 31.642 38.1Z" fill="#C4C4C4"/>
</svg>
