<svg width="49" height="64" viewBox="0 0 49 64" fill="none" xmlns="http://www.w3.org/2000/svg">
<path d="M47.0527 28.7851C47.0168 28.2295 46.8409 27.6917 46.541 27.2209C42.7545 21.1237 40.7855 10.2851 41.9593 2.00978C41.9941 1.75941 41.9744 1.50455 41.9013 1.26239C41.8283 1.02022 41.7038 0.796371 41.536 0.605921C41.3683 0.41547 41.1613 0.262843 40.929 0.158323C40.6967 0.053804 40.4445 -0.000179394 40.1894 1.05893e-05H35.1748C34.734 -0.00149956 34.3081 0.15856 33.9792 0.449392C33.6502 0.740223 33.4415 1.14128 33.3931 1.57539C33.082 4.40073 31.5915 10.9775 24.5072 11.0246C17.4121 10.9775 15.9215 4.40022 15.6099 1.57488C15.5618 1.14117 15.3535 0.740393 15.0251 0.449661C14.6966 0.15893 14.2713 -0.00122403 13.8308 1.05893e-05H8.81062C8.55539 -0.000523807 8.30303 0.0532337 8.07059 0.157648C7.83815 0.262063 7.63106 0.4147 7.4633 0.605239C7.29555 0.795779 7.17106 1.01978 7.09823 1.26209C7.02541 1.5044 7.00596 1.75938 7.0412 2.00978C8.21501 10.2851 6.24552 21.1237 2.45903 27.2204C2.16088 27.6935 1.98513 28.2322 1.94734 28.7887V28.7887L0.00292641 62.1246C-0.0110046 62.3657 0.0249053 62.607 0.108455 62.8339C0.192004 63.0608 0.321435 63.2684 0.488817 63.444C0.656199 63.6196 0.858008 63.7594 1.08188 63.855C1.30575 63.9507 1.54697 64 1.79076 64H47.2092C47.453 64 47.6942 63.9507 47.9181 63.855C48.142 63.7594 48.3438 63.6196 48.5112 63.444C48.6786 63.2684 48.808 63.0608 48.8915 62.8339C48.9751 62.607 49.011 62.3657 48.9971 62.1246L47.0527 28.7851ZM40.3843 1.60834C40.4073 1.63397 40.4243 1.66426 40.4342 1.6971C40.4441 1.72993 40.4467 1.76451 40.4416 1.79842C39.2238 10.3824 41.2849 21.6544 45.2357 28.0177C45.2972 28.1177 45.3497 28.2229 45.3927 28.332C44.267 28.5043 43.3593 27.857 42.8097 26.6684C39.7335 20.0283 38.2532 10.0428 39.3093 1.52065H40.1894C40.2263 1.52044 40.2629 1.52818 40.2966 1.54332C40.3302 1.55846 40.3602 1.58064 40.3843 1.60834V1.60834ZM14.0836 1.74012C14.3614 4.26032 15.9338 12.4885 24.5061 12.5453C33.0692 12.4859 34.6412 4.26083 34.919 1.74012C34.9272 1.67886 34.9578 1.62269 35.0049 1.58217C35.052 1.54166 35.1125 1.5196 35.1748 1.52014H36.1813C35.6415 7.37205 32.73 13.9863 24.5015 13.9863C16.2731 13.9863 13.3616 7.37205 12.8223 1.52065H13.8308C13.8929 1.51983 13.9531 1.54179 13.9999 1.5823C14.0466 1.62282 14.0766 1.67903 14.0841 1.74012H14.0836ZM8.56091 1.79842C8.55561 1.76431 8.55795 1.72946 8.56776 1.69635C8.57758 1.66323 8.59463 1.63267 8.61771 1.60682C8.64174 1.57972 8.67134 1.55801 8.70451 1.54315C8.73769 1.52829 8.77369 1.52062 8.8101 1.52065H9.69328C10.7494 10.0443 9.26909 20.0278 6.19282 26.6684C5.64327 27.857 4.734 28.5043 3.60982 28.332C3.65276 28.2228 3.70515 28.1175 3.76639 28.0172C7.71816 21.6544 9.77924 10.3829 8.56142 1.79842H8.56091Z" fill="#C4C4C4"/>
</svg>
