<svg width="70" height="48" viewBox="0 0 70 48" fill="none" xmlns="http://www.w3.org/2000/svg">
<path d="M17.6649 6.18636C17.7377 6.25914 20.94 13.3916 25.6708 11.6449C28.0725 10.6988 31.2021 9.82539 33.6039 11.1354C35.7873 12.2999 36.2967 14.4834 36.5151 15.6478C36.5879 15.8662 36.5879 16.0117 36.6606 16.0845C36.7334 16.3756 36.8062 16.7396 36.879 17.1762L36.9518 17.904L37.3157 19.2869C37.3157 19.3597 37.3157 19.3597 37.3885 19.4324C39.2808 19.9419 41.3914 20.5241 43.5748 21.1064C49.9067 22.8531 57.112 24.8182 62.9345 25.3277C66.1368 25.6188 68.0291 25.546 69.1208 25.3277C68.8297 21.9798 65.7001 20.9608 60.2416 19.1413C57.6215 18.2679 55.4381 17.1762 53.5458 16.0117C51.5079 17.3946 50.489 18.1952 49.9795 18.7046C49.7612 18.923 49.3973 18.923 49.1789 18.7046L48.4511 18.1224C48.16 17.904 48.16 17.3946 48.3783 17.1762C49.0334 16.594 50.1251 15.7206 51.5807 14.7017C50.7073 14.0467 49.9067 13.3189 49.2517 12.6638C47.3594 14.1922 46.4133 15.0656 45.9038 15.5751C45.6855 15.7934 45.3215 15.8662 45.1032 15.6478L44.3026 15.1384C44.0115 14.92 43.9387 14.4834 44.1571 14.1922C44.8121 13.4644 45.9766 12.3727 47.7233 10.9899C46.9955 10.1165 46.4133 9.31592 45.9038 8.58812C43.5748 10.4076 42.4831 11.4993 41.9736 12.0816C41.7553 12.2999 41.3914 12.3727 41.1003 12.2272L40.2997 11.7177C39.9358 11.4993 39.863 11.0627 40.1541 10.7715C40.9547 9.82539 42.4831 8.44256 44.7393 6.69582C44.521 6.33192 44.3754 6.0408 44.2298 5.89523C44.1571 5.74967 44.0115 5.60411 43.9387 5.38577C43.4293 4.5124 42.7014 3.27513 41.2458 3.05679C39.7902 2.83845 37.9707 3.71181 35.6417 5.60411C30.4743 9.75261 24.3607 3.93016 23.269 2.76566C22.2501 1.60117 21.1584 0 19.4844 0C18.611 0 17.7377 0.509464 16.9371 1.60117C16.646 1.96508 16.3548 2.47454 16.0637 3.05679C16.646 3.85737 17.0099 4.80352 17.301 5.60411C17.4466 5.74967 17.5921 5.96801 17.6649 6.18636Z" fill="#C4C4C4"/>
<path d="M62.7161 27.5112C60.1688 27.2928 57.3303 26.7834 54.4919 26.1283C50.6345 25.255 46.7044 24.1633 42.9925 23.1443C41.3186 22.7077 39.7174 22.1982 38.189 21.8343L38.5529 22.7077L38.9896 23.581C39.4263 24.3816 39.863 25.1822 40.4452 25.9828L41.1003 26.9289L41.7553 27.7295C41.8281 27.8023 41.9008 27.8751 41.9736 27.9479C46.7044 29.1124 51.144 30.2041 53.7641 30.8591C55.2925 31.223 63.2984 32.8242 67.1557 30.2041C68.1747 29.549 68.7569 28.6029 68.9752 27.5112C67.5196 27.7295 65.5546 27.7295 62.7161 27.5112Z" fill="#C4C4C4"/>
<path d="M45.3944 34.2069C43.1382 32.533 41.3914 30.859 40.0086 29.1123C37.6069 29.7673 36.3696 30.2768 35.7873 30.4951C35.4962 30.6407 35.1323 30.4951 34.9868 30.2768L34.5501 29.549C34.3317 29.2578 34.4773 28.8212 34.8412 28.6028C35.6418 28.2389 36.9518 27.8022 38.6986 27.2928C38.0435 26.3466 37.5341 25.4733 37.0974 24.5999C34.8412 25.4733 33.6039 25.9827 33.0217 26.3466C32.7306 26.4922 32.3666 26.4194 32.2211 26.2011L31.6388 25.4733C31.4205 25.1821 31.4933 24.7454 31.7844 24.5271C32.6578 24.0176 34.1134 23.3626 36.1512 22.6348C35.7146 21.6159 35.4234 20.597 35.2051 19.7964C32.3666 20.8153 30.9838 21.4703 30.3288 21.907C30.0377 22.0526 29.6738 21.9798 29.5282 21.7614L28.946 21.0336C28.7276 20.7425 28.7276 20.3058 29.0915 20.0875C30.1832 19.4325 32.0027 18.6319 34.7684 17.6129C34.6956 17.249 34.6228 16.8851 34.5501 16.6668C34.4773 16.5212 34.4773 16.3029 34.4045 16.0846C34.1862 15.0656 33.895 13.6828 32.585 13.0278C31.2749 12.3 29.3099 12.5911 26.4714 13.6828C20.2851 16.0118 16.2821 8.51536 15.6271 7.05975C14.9721 5.60414 14.5354 3.78462 12.8614 3.27516C11.9881 2.98403 11.0419 3.20238 9.95021 3.93018C8.93128 4.58521 7.76679 5.89526 6.60229 7.35087C8.34903 8.80649 11.5514 12.5911 9.65908 18.4135C14.0987 21.252 19.2661 24.5271 22.4685 26.4922C24.4336 27.7295 26.6898 29.2578 29.0915 30.859C34.5501 34.4981 40.7364 38.7193 46.0494 40.9755C49.0334 42.2856 50.8529 42.795 51.9446 42.9406C52.6725 39.6655 49.9796 37.6276 45.3944 34.2069Z" fill="#C4C4C4"/>
<path d="M5.29223 9.02484C4.20052 10.5532 3.1816 12.2272 2.30823 13.61C3.39994 14.3378 5.36502 15.5751 7.694 17.0307C8.93127 12.8094 6.60229 10.1893 5.29223 9.02484Z" fill="#C4C4C4"/>
<path d="M37.7524 39.0833C34.3317 37.0454 30.9838 34.7164 27.7814 32.6058C25.4524 31.0046 23.1962 29.549 21.2312 28.3117C15.8454 24.8911 4.70995 17.7586 1.21648 15.5751L0.779793 16.3029C0.0519861 17.4674 -0.166356 18.4864 0.124767 19.5053C0.634231 21.6887 3.47268 23.3627 8.6401 26.4195C10.2413 27.3656 11.988 28.4573 14.0259 29.6946C17.1554 31.6597 20.94 34.0614 24.5063 36.3176C28.9459 39.1561 33.1672 41.849 35.5689 43.3046C36.9518 44.1052 44.0115 48.1809 48.4511 46.9436C49.6156 46.6525 50.489 45.9247 51.0712 44.9785C49.6884 44.6874 47.7233 44.0324 45.176 42.9407C42.7742 41.9217 40.2997 40.5389 37.7524 39.0833Z" fill="#C4C4C4"/>
</svg>
