<svg width="23" height="64" viewBox="0 0 23 64" fill="none" xmlns="http://www.w3.org/2000/svg">
<path d="M22.498 49.4099L17.5037 16.0483C17.3705 15.0494 16.5049 14.2503 15.4394 14.2503H7.11565C6.1168 14.2503 5.18454 14.9828 5.05136 16.0483L0.0570955 49.4099C-0.142675 50.6085 0.190278 51.8072 0.922769 52.7394L7.91473 61.5959C9.64608 63.7934 13.0422 63.7934 14.7735 61.5959L21.6989 52.7394C22.3648 51.8072 22.6977 50.6085 22.498 49.4099Z" fill="#C4C4C4"/>
<path d="M5.05137 9.52242C5.18455 10.5213 6.11681 11.2538 7.11566 11.2538H15.506C16.5049 11.2538 17.3705 10.5213 17.5703 9.52242L18.7023 2.46387C18.9021 1.13206 17.9699 3.05176e-05 16.6381 3.05176e-05H5.98363C4.71842 3.05176e-05 3.71957 1.13206 3.91934 2.39728L5.05137 9.52242Z" fill="#C4C4C4"/>
</svg>
