<svg width="34" height="58" viewBox="0 0 34 58" fill="none" xmlns="http://www.w3.org/2000/svg">
<path d="M29.2843 12.3632H3.93372C2.73738 13.0826 1.74683 14.0985 1.05775 15.3126C0.368664 16.5267 0.00434964 17.898 0 19.294V37.9011C0.00434964 39.2971 0.368664 40.6684 1.05775 41.8825C1.74683 43.0966 2.73738 44.1125 3.93372 44.8319H29.2843C30.4807 44.1125 31.4712 43.0966 32.1603 41.8825C32.8494 40.6684 33.2137 39.2971 33.2181 37.9011V19.294C33.2137 17.898 32.8494 16.5267 32.1603 15.3126C31.4712 14.0985 30.4807 13.0826 29.2843 12.3632V12.3632Z" fill="#C4C4C4"/>
<path d="M24.8511 0H8.36694C7.93941 0.00562116 7.52667 0.157333 7.19727 0.429935C6.86788 0.702538 6.64166 1.07962 6.55618 1.49856L4.80786 9.86551H28.4102L26.6618 1.49856C26.5764 1.07962 26.3501 0.702538 26.0207 0.429935C25.6914 0.157333 25.2786 0.00562116 24.8511 0Z" fill="#C4C4C4"/>
<path d="M6.55618 55.6964C6.64166 56.1154 6.86788 56.4924 7.19728 56.765C7.52667 57.0376 7.93941 57.1894 8.36694 57.195H24.8511C25.2786 57.1894 25.6914 57.0376 26.0207 56.765C26.3501 56.4924 26.5764 56.1154 26.6618 55.6964L28.4726 47.3295H4.74542L6.55618 55.6964Z" fill="#C4C4C4"/>
</svg>
