<svg width="37" height="64" viewBox="0 0 37 64" fill="none" xmlns="http://www.w3.org/2000/svg">
<path d="M36.5714 24.2857C36.5714 20.5 33.5 17.4286 29.7143 17.4286H6.85714C3.07143 17.4286 0 20.5 0 24.2857V39.1429C0 41.0357 1.53571 42.5714 3.42857 42.5714C5.32143 42.5714 6.85714 41.0357 6.85714 39.1429V26.5714H9.14286V59.1429C9.14286 61.3571 10.9286 63.1429 13.1429 63.1429C15.3571 63.1429 17.1429 61.3571 17.1429 59.1429V42.5714H19.4286V59.1429C19.4286 61.3571 21.2143 63.1429 23.4286 63.1429C25.6429 63.1429 27.4286 61.3571 27.4286 59.1429V26.5714H29.7143V39.1429C29.7143 41.0357 31.25 42.5714 33.1429 42.5714C35.0357 42.5714 36.5714 41.0357 36.5714 39.1429V24.2857ZM26.2857 8.28571C26.2857 3.85714 22.7143 0.285713 18.2857 0.285713C13.8571 0.285713 10.2857 3.85714 10.2857 8.28571C10.2857 12.7143 13.8571 16.2857 18.2857 16.2857C22.7143 16.2857 26.2857 12.7143 26.2857 8.28571Z" fill="white"/>
</svg>
