<svg width="46" height="64" viewBox="0 0 46 64" fill="none" xmlns="http://www.w3.org/2000/svg">
<path d="M45.7143 36.8571C45.7143 36.1786 45.5 35.5 45.1429 34.9643L36 21.25C34.5714 19.1429 32.3571 17.4286 29.7143 17.4286H16C13.3571 17.4286 11.1429 19.1429 9.71429 21.25L0.571429 34.9643C0.214286 35.5 0 36.1786 0 36.8571C0 38.75 1.53571 40.2857 3.42857 40.2857C4.57143 40.2857 5.64286 39.7143 6.28571 38.75L14.3929 26.5714H16V31.2857L7.17857 45.9643C6.96429 46.3214 6.85714 46.7143 6.85714 47.1429C6.85714 48.3929 7.89286 49.4286 9.14286 49.4286H16V59.1429C16 61.3571 17.8214 63.1429 20 63.1429H25.7143C27.9286 63.1429 29.7143 61.3571 29.7143 59.1429V49.4286H36.5714C37.8214 49.4286 38.8571 48.3929 38.8571 47.1429C38.8571 46.7143 38.75 46.3214 38.5357 45.9643L29.7143 31.2857V26.5714H31.3214L39.4286 38.75C40.0714 39.7143 41.1429 40.2857 42.2857 40.2857C44.1786 40.2857 45.7143 38.75 45.7143 36.8571ZM30.8571 8.28571C30.8571 3.85714 27.2857 0.285713 22.8571 0.285713C18.4286 0.285713 14.8571 3.85714 14.8571 8.28571C14.8571 12.7143 18.4286 16.2857 22.8571 16.2857C27.2857 16.2857 30.8571 12.7143 30.8571 8.28571Z" fill="white"/>
</svg>
