<svg width="164" height="164" viewBox="0 0 164 164" fill="none" xmlns="http://www.w3.org/2000/svg">
<g clip-path="url(#clip0)">
<path d="M163.494 148.625C163.05 144.684 162.64 140.76 162.229 136.819C161.819 132.992 161.425 129.166 161.014 125.34C160.604 121.514 160.177 117.688 159.766 113.861C159.356 110.035 158.962 106.209 158.551 102.383C158.141 98.5568 157.714 94.7306 157.303 90.9044C156.893 87.0783 156.499 83.2521 156.088 79.4259C155.678 75.5997 155.251 71.7736 154.84 67.9474C154.43 64.1705 154.036 60.3936 153.642 56.6331C153.231 52.7576 152.804 48.8658 152.394 44.9903C152.033 41.6732 151.589 38.3725 151.359 35.0554C150.801 27.206 145.908 20.7688 138.536 18.6997C136.319 18.0757 133.971 17.8951 131.689 17.5503C127.025 16.8606 122.346 16.1873 117.683 15.4976C113.019 14.8079 108.34 14.1346 103.677 13.4449C98.57 12.6895 93.4799 11.9506 88.3733 11.1952C83.7266 10.5219 79.0798 9.84864 74.4494 9.17536C69.3757 8.4364 64.302 7.68102 59.2284 6.94206C54.5816 6.26878 49.9348 5.57909 45.3044 4.90581C40.6412 4.23254 35.9616 3.54284 31.2984 2.86957C26.5696 2.17987 21.8571 1.49017 17.1282 0.800475C15.3877 0.537733 13.6965 0.242149 11.9888 0.0615141C8.91836 -0.250492 6.04491 0.389941 3.6148 2.39335C0.823444 4.70876 -0.276676 7.79597 0.0681377 11.3101C0.609988 17.0083 1.31604 22.7066 1.97282 28.4048C2.76097 35.2853 3.58196 42.1823 4.38652 49.0628C5.12541 55.4836 5.83146 61.9207 6.57034 68.3415C7.30923 74.7458 8.06454 81.1337 8.80342 87.538C9.37811 92.5301 9.91996 97.5222 10.4947 102.514C11.0693 107.506 11.6605 112.482 12.2351 117.474C12.7606 121.974 13.2532 126.473 13.7622 130.989C14.0906 133.896 14.2712 136.819 14.8295 139.676C15.9953 145.637 19.6733 149.693 25.0425 152.304C27.5547 153.519 30.2804 153.749 33.0061 153.962C37.4394 154.324 41.8727 154.701 46.306 155.079C49.8691 155.375 53.4322 155.654 56.9953 155.949C61.2972 156.311 65.5992 156.688 69.9012 157.033C73.4314 157.329 76.9781 157.608 80.5083 157.904C84.1863 158.216 87.8479 158.528 91.5259 158.823C94.383 159.069 97.24 159.299 100.097 159.529C103.824 159.841 107.552 160.153 111.279 160.465C114.793 160.761 118.306 161.04 121.804 161.336C125.531 161.648 129.258 161.96 132.986 162.272C136.549 162.567 140.112 162.846 143.675 163.142C146.483 163.372 149.274 163.602 152.082 163.832C152.262 163.848 152.443 163.93 152.624 163.996C153.116 163.996 153.609 163.996 154.101 163.996C154.775 163.881 155.431 163.782 156.088 163.635C160.242 162.699 163.264 159.332 163.756 155.095C163.789 154.833 163.871 154.57 163.937 154.307C163.937 153.7 163.937 153.109 163.937 152.501C163.822 151.22 163.625 149.923 163.494 148.625Z" fill="#49A0CD"/>
<path d="M5.76334 49.9538L32.9708 45.5364L22.9219 117.725L30.278 116.493L31.2631 108.151L49.0292 105.589L45.4826 131.092L2.82422 137.824L13.7269 60.7262L5.76334 49.9538Z" fill="white"/>
<path d="M96.7772 123.111L54.1188 129.86C53.1336 130.024 52.1648 129.597 51.1796 128.579C50.1944 127.561 49.669 126.51 49.5869 125.459V124.605L54.2501 91.7625L70.4235 100.958L68.9457 110.647L81.4411 108.693L83.0339 96.6889L56.2041 78.0014L61.4748 40.9877L104.002 34.3699C104.987 34.2878 105.923 34.7312 106.826 35.7164C107.729 36.7017 108.255 37.7198 108.419 38.7872V39.6411L104.002 70.2834L88.0747 61.0874L89.1748 53.4843L76.5481 55.5699L75.3166 64.2732L102.294 83.404L96.7772 123.111Z" fill="white"/>
<path d="M114.232 32.7934L156.759 26.1756C157.744 26.0935 158.68 26.5369 159.583 27.5222C160.486 28.5075 161.012 29.5256 161.176 30.593V31.4469L156.398 64.7822L140.339 55.5863L141.932 45.2901L129.305 47.3756L121.703 102.404L134.198 100.449L136.645 81.8112L152.703 91.4997L149.386 114.917L106.859 121.666C105.874 121.83 104.906 121.403 103.92 120.385C102.935 119.367 102.41 118.316 102.328 117.265V116.411L114.232 32.7934Z" fill="white"/>
</g>
<defs>
<clipPath id="clip0">
<rect width="164" height="164" fill="white"/>
</clipPath>
</defs>
</svg>
