<?xml version="1.0" encoding="utf-8"?>
<!-- Generator: Adobe Illustrator 16.0.0, SVG Export Plug-In . SVG Version: 6.00 Build 0)  -->
<!DOCTYPE svg PUBLIC "-//W3C//DTD SVG 1.1//EN" "http://www.w3.org/Graphics/SVG/1.1/DTD/svg11.dtd">
<svg version="1.1" id="Layer_1" xmlns="http://www.w3.org/2000/svg" xmlns:xlink="http://www.w3.org/1999/xlink" x="0px" y="0px"
	 width="71.333px" height="77px" viewBox="0 0 71.333 77" enable-background="new 0 0 71.333 77" xml:space="preserve">
<g>
	<defs>
		<rect id="SVGID_1_" x="-0.186" y="0.092" width="71.667" height="77"/>
	</defs>
	<clipPath id="SVGID_2_">
		<use xlink:href="#SVGID_1_"  overflow="visible"/>
	</clipPath>
	
		<rect x="-11.186" y="-6.241" clip-path="url(#SVGID_2_)" fill="#A3A1A1" stroke="#FFFFFF" stroke-width="0.33" width="89.667" height="90.333"/>
	<g opacity="0.2" clip-path="url(#SVGID_2_)">
		<path fill-rule="evenodd" clip-rule="evenodd" fill="#FFFFFF" d="M20.192,35.227c-1.474-0.537-2.827-1.032-4.182-1.523
			c-0.696-0.255-1.396-0.485-2.085-0.75c-0.492-0.192-0.812-0.141-1.072,0.314c-0.332,0.586-0.739,1.127-1.145,1.666
			c-0.096,0.13-0.338,0.288-0.467,0.249c-0.794-0.234-1.581-0.523-2.461-0.823c5.277-7.303,10.488-14.516,15.777-21.835
			c-3.626-1.233-7.101-2.412-10.747-3.653c0.164,0.8,0.221,1.491,0.452,2.136c0.712,1.998,0.428,3.626-0.965,5.215
			c-1.682,1.921-3.042,4.102-4.543,6.168c-0.069,0.096-0.167,0.171-0.387,0.399c0.793-2.208,1.522-4.244,2.259-6.278
			c1.938-5.368,3.878-10.735,5.821-16.103c0.607-1.675,1.195-3.36,1.844-5.018c1.007-2.567,3.899-3.265,6.397-1.538
			C30.742-1.964,36.777,2.247,42.826,6.44c4.701,3.262,9.417,6.506,14.122,9.767c3.229,2.239,6.469,4.469,9.669,6.746
			c1.506,1.073,2.375,2.543,2.717,4.257c0.045,0.234,0.054,0.473,0.09,0.808c-2.407-0.832-4.717-1.628-7.027-2.425
			c-1.966-0.683-3.939-1.353-5.899-2.058c-0.463-0.166-0.69-0.071-0.946,0.286c-3.702,5.114-7.421,10.213-11.136,15.317
			c-2.271,3.115-4.548,6.225-6.817,9.343c-0.81,1.114-0.206,2.531,1.214,3.014c4.619,1.567,9.229,3.157,13.841,4.747
			c2.191,0.757,2.18,0.762,3.411-0.953c1.167-1.623,2.338-3.244,3.537-4.846c0.315-0.424,0.34-0.759,0.003-1.245
			c-1.272-1.818-2.5-3.665-3.83-5.62c-0.637,0.879-1.216,1.666-1.782,2.46c-0.672,0.939-1.321,1.896-2.013,2.825
			c-0.113,0.155-0.428,0.322-0.587,0.269c-1.425-0.456-2.835-0.962-4.369-1.494c0.871-1.216,1.688-2.369,2.512-3.512
			c3.018-4.182,6.042-8.359,9.046-12.549c0.247-0.343,0.446-0.479,0.928-0.305c1.352,0.491,2.728,0.924,4.196,1.415
			c-0.672,0.907-1.255,1.752-1.911,2.543c-0.333,0.398-0.259,0.693,0.039,1.101c0.993,1.359,1.93,2.752,2.938,4.102
			c0.323,0.436,0.339,0.797,0.175,1.233c-1.314,3.494-2.621,6.991-3.923,10.488c-1.823,4.897-3.641,9.796-5.455,14.695
			c-0.611,1.647-1.158,3.324-1.823,4.948c-1.182,2.876-4.198,3.007-6.333,1.593c-2.33-1.544-4.771-2.937-7.157-4.397
			c-4.172-2.552-8.338-5.107-12.507-7.659c-3.561-2.18-7.13-4.349-10.686-6.536C13.034,52.322,8.985,49.88,5,47.333
			c-2.717-1.738-3.813-5.215-2.696-7.96c0.149-0.366,0.311-0.459,0.743-0.308c3.583,1.252,7.175,2.475,10.759,3.73
			c0.6,0.211,0.904,0.115,1.247-0.376c1.505-2.152,3.07-4.262,4.609-6.387C19.819,35.819,19.953,35.593,20.192,35.227z
			 M24.349,31.567c-0.443,0.606-0.799,1.088-1.152,1.572c-1.984,2.73-3.958,5.461-5.953,8.182c-0.415,0.57-0.497,1.172-0.289,1.867
			c0.262,0.881,1.019,1.078,1.783,1.338c4.989,1.705,9.972,3.426,14.955,5.148c0.445,0.154,0.778,0.257,1.11-0.209
			c2.614-3.666,5.256-7.315,7.916-10.952c0.361-0.494,0.367-0.89,0.035-1.454c-1.938-3.298-3.834-6.619-5.758-9.928
			c-0.21-0.361-0.32-0.659-0.045-1.005c0.434-0.549,0.802-1.145,1.249-1.684c0.141-0.167,0.474-0.352,0.656-0.294
			c1.446,0.444,2.879,0.941,4.414,1.452c-0.404,0.572-0.68,1.088-1.079,1.494c-0.528,0.538-0.451,0.978,0.016,1.599
			c1.104,1.472,2.123,2.995,3.183,4.496c0.157,0.221,0.331,0.43,0.559,0.724c0.577-0.787,1.092-1.482,1.601-2.18
			c1.679-2.292,3.382-4.57,5.026-6.888c0.895-1.266,0.348-2.552-1.247-3.104c-5.056-1.752-10.116-3.488-15.169-5.252
			c-0.47-0.164-0.757-0.157-1.038,0.237c-2.439,3.376-4.877,6.756-7.357,10.104c-0.398,0.535-0.354,0.931-0.007,1.507
			c1.948,3.24,3.847,6.503,5.779,9.749c0.224,0.375,0.271,0.627-0.014,0.977c-0.561,0.693-1.037,1.449-1.544,2.18
			c-0.648,0.931-0.652,0.945-1.814,0.555c-1.155-0.39-2.304-0.807-3.559-1.25c0.653-0.872,1.217-1.65,1.81-2.407
			c0.242-0.309,0.254-0.567-0.009-0.92c-0.74-0.996-1.444-2.017-2.169-3.028C25.637,33.356,25.033,32.521,24.349,31.567z"/>
	</g>
	<g clip-path="url(#SVGID_2_)">
		<g>
			<path fill-rule="evenodd" clip-rule="evenodd" fill="#EDEDED" d="M71.055,77.092c-23.555,0-47.142,0-70.698,0
				c-1.67-6.567,0.869-12.015,7.406-15.004c4.016-1.834,8.309-3.059,12.476-4.56c6.158-2.218,8.706-9.747,4.979-15.137
				C20.664,35.804,18.691,28.547,19,20.596c0.259-6.664,4.157-12.268,10.67-13.585c4.019-0.812,8.498-0.762,12.507,0.115
				c6.018,1.313,9.843,6.915,10.138,13.109c0.387,8.146-1.48,15.625-6.292,22.34c-3.566,4.978-1.021,12.757,4.711,14.813
				c3.985,1.43,8.071,2.615,11.971,4.249C69.738,64.587,72.527,69.891,71.055,77.092z"/>
		</g>
	</g>
</g>
</svg>
