<svg version="1.2" baseProfile="tiny-ps" xmlns="http://www.w3.org/2000/svg" viewBox="0 0 492 492" width="492" height="492">
	<title>left-arrow-svg</title>
	<style>
		tspan { white-space:pre }
		.shp0 { fill: #487fc0 } 
	</style>
	<g id="Layer">
		<g id="Layer">
			<path id="Layer" class="shp0" d="M198.61 246.1L382.66 62.04C387.73 56.98 390.52 50.22 390.52 43.02C390.52 35.8 387.73 29.05 382.66 23.98L366.54 7.86C361.48 2.79 354.71 0 347.5 0C340.3 0 333.54 2.79 328.48 7.86L109.33 227.01C104.24 232.09 101.46 238.88 101.48 246.09C101.46 253.34 104.24 260.12 109.33 265.2L328.27 484.14C333.34 489.21 340.09 492 347.3 492C354.51 492 361.27 489.21 366.34 484.14L382.46 468.02C392.95 457.52 392.95 440.44 382.46 429.96L198.61 246.1Z" />
		</g>
	</g>
	<g id="Layer">
	</g>
	<g id="Layer">
	</g>
	<g id="Layer">
	</g>
	<g id="Layer">
	</g>
	<g id="Layer">
	</g>
	<g id="Layer">
	</g>
	<g id="Layer">
	</g>
	<g id="Layer">
	</g>
	<g id="Layer">
	</g>
	<g id="Layer">
	</g>
	<g id="Layer">
	</g>
	<g id="Layer">
	</g>
	<g id="Layer">
	</g>
	<g id="Layer">
	</g>
	<g id="Layer">
	</g>
</svg>