<svg version="1.2" baseProfile="tiny-ps" xmlns="http://www.w3.org/2000/svg" viewBox="0 0 513 513" width="513" height="513">
	<title>phone-call (1)-svg</title>
	<style>
		tspan { white-space:pre }
		.shp0 { fill: #30b351 } 
	</style>
	<path id="Layer" class="shp0" d="M346.02 121.35L360.21 133.07C370.65 141.79 378.66 153.06 383.45 165.8C387.98 177.79 389.36 190.74 387.43 203.4C383.24 228.12 375.11 252.02 363.36 274.17C352.92 294.51 340.33 313.66 325.77 331.28C312.34 347.44 297.38 362.24 281.08 375.5C263.42 389.99 243.85 401.97 222.92 411.11C196.21 422.43 165.4 417.9 143.09 399.36L126.41 385.81C118.2 379.04 117.02 366.88 123.79 358.67C123.83 358.62 123.86 358.58 123.9 358.54L167.25 306.38C174.03 298.16 186.18 296.98 194.4 303.76C194.45 303.8 194.49 303.83 194.53 303.87L225.16 329.33C230.64 333.71 238.46 333.6 243.81 329.06C256.46 317.92 268.2 305.8 278.95 292.83C291.02 278.37 301.78 262.87 311.11 246.51C311.64 245.58 312.06 244.59 312.38 243.57C314.14 237.94 312.32 231.8 307.78 228.05L284.39 208.61L277.89 203.21C269.68 196.43 268.5 184.28 275.27 176.06C275.31 176.02 275.34 175.98 275.38 175.93L318.74 123.78C325.53 115.58 337.69 114.45 345.89 121.24C345.94 121.27 345.97 121.31 346.02 121.35Z" />
	<path id="Layer" class="shp0" d="M345.44 121.19L359.54 132.92C362.99 135.93 366.17 139.26 369.03 142.84C373.56 154.82 374.93 167.78 373 180.44C368.81 205.16 360.69 229.06 348.93 251.21C338.5 271.55 325.9 290.7 311.35 308.32C297.91 324.48 282.95 339.28 266.66 352.54C249 367.02 229.42 379.01 208.5 388.15C181.78 399.47 150.98 394.94 128.66 376.4L118.73 368.14C119.18 364.47 120.67 361 123.04 358.15L166.39 305.99C173.26 297.81 185.42 296.69 193.67 303.48L224.3 329.02C229.81 333.62 237.85 333.49 243.21 328.74C255.85 317.76 267.62 305.82 278.4 293.02C290.47 278.53 301.22 263 310.54 246.61C314.02 240.49 312.62 232.76 307.22 228.23L298.41 220.9L277.26 203.4C272.16 199.11 269.6 192.55 270.42 185.95C270.93 182.31 272.42 178.88 274.73 176.04L318.1 123.97C324.89 115.66 337.12 114.42 345.44 121.19Z" />
	<g id="Layer">
	</g>
	<g id="Layer">
	</g>
	<g id="Layer">
	</g>
	<g id="Layer">
	</g>
	<g id="Layer">
	</g>
	<g id="Layer">
	</g>
	<g id="Layer">
	</g>
	<g id="Layer">
	</g>
	<g id="Layer">
	</g>
	<g id="Layer">
	</g>
	<g id="Layer">
	</g>
	<g id="Layer">
	</g>
	<g id="Layer">
	</g>
	<g id="Layer">
	</g>
	<g id="Layer">
	</g>
</svg>