<svg version="1.2" baseProfile="tiny-ps" xmlns="http://www.w3.org/2000/svg" viewBox="0 0 513 513" width="513" height="513">
	<title>fingerprint-svg</title>
	<style>
		tspan { white-space:pre }
		.shp0 { fill: #ffc107 } 
		.shp1 { fill: #ffffff } 
	</style>
	<g id="Layer">
		<path id="Layer" class="shp0" d="M296.64 252.27C287.23 224.35 256.98 209.35 229.07 218.76C202.91 227.58 187.8 254.91 194.24 281.75C213.44 348.5 283.67 408.41 347.99 459.31C352.61 462.97 359.32 462.19 362.98 457.57C366.64 452.95 365.86 446.24 361.24 442.58C299.5 393.73 232.19 336.53 214.74 275.86C209.86 258.87 219.68 241.13 236.67 236.25C253.67 231.36 271.41 241.18 276.29 258.18C287.94 298.71 345.86 348.8 400.96 392.4C405.58 396.06 412.29 395.28 415.95 390.67C419.61 386.05 418.83 379.34 414.21 375.68C385.11 352.7 308.06 291.73 296.64 252.27Z" />
		<path id="Layer" class="shp0" d="M377.5 224.77C354.31 153.67 279.17 113.5 207.17 133.72C133.56 154.84 91.01 231.64 112.13 305.25C112.14 305.3 112.16 305.36 112.17 305.41C129.69 366.25 92.14 383.12 80.17 386.84C74.55 388.6 71.43 394.59 73.2 400.21C74.96 405.83 80.95 408.96 86.57 407.19C119.19 396.99 150.87 362.69 132.68 299.5C114.74 237.23 150.67 172.21 212.94 154.27C212.97 154.26 213.01 154.25 213.04 154.24C274.61 136.93 338.75 171.83 357.68 232.92C357.93 233.75 358.29 234.54 358.74 235.28C359.85 237.12 362.14 240.98 430.7 296.62C435.27 300.33 441.99 299.64 445.71 295.07C449.43 290.5 448.73 283.78 444.16 280.06C419.25 259.84 382.83 229.78 377.5 224.77Z" />
		<path id="Layer" class="shp0" d="M337.69 240.47C322.95 189.59 269.86 160.21 218.92 174.74C168.91 190.18 139.89 242.22 153.03 292.88C174.57 391.02 158.47 413.67 114.26 427.5C108.64 429.26 105.52 435.25 107.29 440.87C109.05 446.49 115.04 449.62 120.66 447.85C182.42 428.65 195.84 388.29 174 288.3C163.38 248.65 185.82 207.66 224.94 195.24C264.58 183.99 305.86 206.87 317.33 246.44C321.6 260.99 332.93 280.96 420.29 350.1C424.91 353.76 431.62 352.98 435.28 348.36C438.94 343.74 438.16 337.03 433.54 333.38C354.24 270.66 340.67 250.79 337.69 240.47Z" />
		<path id="Layer" class="shp0" d="M367.04 388.95C330.95 361.56 270.53 315.73 255.66 264.06C253.94 258.43 247.97 255.26 242.34 256.99C236.84 258.67 233.67 264.4 235.16 269.95C251.97 328.45 315.93 376.96 354.13 405.95C361.9 411.54 369.38 417.52 376.53 423.87C380.77 427.97 387.52 427.85 391.62 423.61C395.61 419.48 395.61 412.92 391.62 408.79C383.81 401.72 375.6 395.1 367.04 388.95Z" />
		<path id="Layer" class="shp0" d="M309.31 463.15C298.53 443.15 278.68 429.66 256.11 427.01C219.84 427.01 214.23 488.66 213.44 501.01C213.08 506.89 217.55 511.95 223.43 512.32L224.11 512.32C229.75 512.33 234.43 507.95 234.78 502.31C236.12 480.34 244.53 448.34 256.11 448.34C271.92 448.34 283.14 463.57 292.14 475.8C295.12 480.04 298.37 484.07 301.89 487.87C306.13 491.97 312.88 491.85 316.97 487.61C320.97 483.48 320.97 476.92 316.97 472.79C314.21 469.75 311.65 466.52 309.31 463.15Z" />
		<path id="Layer" class="shp0" d="M212.95 370.43C210.95 364.89 204.83 362.03 199.29 364.03C194.08 365.92 191.18 371.48 192.62 376.83C201.75 405.36 183.81 461.33 156.83 470.1C151.2 471.86 148.07 477.85 149.83 483.47C151.59 489.09 157.58 492.22 163.2 490.46C163.27 490.44 163.34 490.41 163.42 490.39C204.46 477.16 224.26 405.87 212.95 370.43Z" />
		<path id="Layer" class="shp0" d="M440.73 224.85C427.39 220.59 416.92 203.52 404.78 184.04C379.1 142.53 343.87 85.67 245.44 85.67C145.34 85.79 64.23 166.91 64.11 267.01C64.11 272.9 68.88 277.67 74.78 277.67C80.67 277.67 85.44 272.9 85.44 267.01C85.54 178.68 157.12 107.1 245.44 107.01C331.99 107.01 362.31 155.95 386.67 195.28C401.01 218.43 413.38 238.42 434.16 245.16C439.74 247.04 445.79 244.04 447.67 238.46C449.55 232.88 446.55 226.83 440.97 224.95C440.9 224.92 440.82 224.9 440.75 224.87L440.73 224.85Z" />
		<path id="Layer" class="shp0" d="M85.44 352.34C91.33 352.34 96.11 347.56 96.11 341.67C96.11 340.02 95.72 338.38 94.98 336.9C90.43 328.36 87.21 319.18 85.44 309.68C85.44 303.78 80.67 299.01 74.77 299.01C68.88 299.01 64.11 303.78 64.11 309.68C65.82 322.54 69.82 334.99 75.9 346.45C77.72 350.06 81.41 352.34 85.44 352.34Z" />
		<path id="Layer" class="shp0" d="M79.9 126.78C84.93 129.85 91.49 128.26 94.56 123.23C94.56 123.22 94.57 123.21 94.57 123.2C103.83 107.92 149.44 64.34 234.78 64.34C316.78 64.34 375.13 105.88 385.64 123.2C388.7 128.24 395.26 129.84 400.3 126.78C405.34 123.73 406.94 117.17 403.88 112.13L403.88 112.13C389.25 88.02 324.63 43.01 234.78 43.01C139.22 43.01 88 92.91 76.31 112.15C73.27 117.18 74.87 123.73 79.9 126.78Z" />
		<path id="Layer" class="shp0" d="M143.04 42.07C147.93 39.94 152.07 37.8 155.99 35.67C172.03 27.58 183.58 21.67 234.78 21.67C269.35 19.77 303.92 25.31 336.17 37.91C340.25 39.42 344.34 40.94 348.63 42.41C349.75 42.8 350.92 43 352.11 43.01C358 43.02 362.78 38.25 362.79 32.36C362.8 27.79 359.9 23.73 355.58 22.25C351.45 20.82 347.52 19.37 343.6 17.98C308.98 4.48 271.89 -1.53 234.78 0.34C178.37 0.34 164.25 7.59 146.33 16.79C142.72 18.65 138.88 20.61 134.4 22.61C128.93 24.79 126.26 30.99 128.43 36.47C130.61 41.94 136.81 44.61 142.28 42.44C142.56 42.33 142.84 42.2 143.11 42.07L143.04 42.07Z" />
		<path id="Layer" class="shp0" d="M427.27 184.92C429.27 190.46 435.39 193.32 440.93 191.32C446.14 189.43 449.04 183.87 447.6 178.52C441.54 162.85 434.04 147.78 425.18 133.5C422.09 128.48 415.52 126.92 410.5 130C405.48 133.09 403.91 139.66 407 144.68C414.94 157.46 421.72 170.93 427.27 184.92Z" />
	</g>
	<path id="Layer" class="shp1" d="M354.54 461.61C352.14 461.61 349.81 460.8 347.93 459.31C283.61 408.38 213.44 348.5 194.24 281.75C187.37 253.11 205.01 224.32 233.66 217.44C260.5 211 287.82 226.11 296.64 252.27C307.99 291.71 385.05 352.7 413.98 375.66C418.71 379.17 419.7 385.85 416.19 390.58C412.67 395.31 405.99 396.3 401.26 392.79C401.09 392.66 400.92 392.52 400.75 392.38C345.64 348.78 287.68 298.71 276.06 258.15C271.17 241.16 253.44 231.35 236.45 236.23C219.46 241.12 209.65 258.85 214.53 275.84C231.98 336.51 299.29 393.71 361.01 442.56C365.63 446.22 366.4 452.93 362.75 457.54C360.72 460.1 357.63 461.59 354.37 461.59L354.54 461.61Z" />
	<path id="Layer" class="shp1" d="M83.31 407.62C77.42 407.6 72.65 402.82 72.66 396.93C72.67 392.28 75.69 388.17 80.13 386.77C92.06 383.04 129.6 366.17 112.13 305.34C90.96 231.75 133.46 154.92 207.06 133.75C207.1 133.74 207.13 133.73 207.17 133.72C279.18 113.49 354.33 153.66 377.52 224.77C382.83 229.76 419.25 259.84 444.16 280.07C448.62 283.92 449.11 290.65 445.26 295.11C441.58 299.38 435.21 300.04 430.72 296.62C362.14 240.96 359.85 237.1 358.74 235.27C358.3 234.53 357.95 233.74 357.7 232.92C338.78 171.82 274.61 136.92 213.04 154.24C150.76 172.14 114.77 237.13 132.67 299.41C132.67 299.42 132.67 299.43 132.68 299.44C150.85 362.6 119.19 396.93 86.55 407.13C85.5 407.46 84.41 407.62 83.31 407.62Z" />
	<path id="Layer" class="shp1" d="M117.44 448.34C111.55 448.33 106.78 443.55 106.79 437.66C106.8 433 109.83 428.89 114.26 427.5C158.47 413.67 174.55 390.98 153 292.89C139.88 242.22 168.9 190.19 218.9 174.74C269.84 160.25 322.91 189.62 337.69 240.47C340.65 250.77 354.2 270.63 433.37 333.31C438.1 336.82 439.09 343.5 435.58 348.23C432.07 352.97 425.38 353.95 420.65 350.44C420.48 350.31 420.31 350.18 420.14 350.04C332.67 280.87 321.35 260.89 317.19 246.38C305.75 206.76 264.42 183.86 224.77 195.18C185.61 207.61 163.17 248.66 173.85 288.34C195.8 388.35 182.38 428.61 120.51 447.89C119.52 448.19 118.48 448.35 117.44 448.34Z" />
	<path id="Layer" class="shp1" d="M384.11 427.01C381.28 427.01 378.56 425.89 376.56 423.89C369.4 417.54 361.92 411.55 354.16 405.95C315.95 376.96 251.99 328.45 235.18 269.95C233.46 264.32 236.62 258.36 242.26 256.63C247.89 254.91 253.85 258.07 255.58 263.71C255.62 263.82 255.65 263.94 255.68 264.06C270.62 315.73 330.95 361.56 367.04 388.95C375.61 395.1 383.82 401.73 391.64 408.81C395.8 412.98 395.79 419.73 391.61 423.89C389.62 425.88 386.92 427 384.11 427.01Z" />
	<path id="Layer" class="shp1" d="M224.11 512.34L223.43 512.34C217.55 511.98 213.08 506.91 213.44 501.03C214.21 488.68 219.84 427.03 256.11 427.03C278.72 429.66 298.63 443.15 309.44 463.19C311.77 466.57 314.32 469.79 317.08 472.83C321.17 477.07 321.05 483.82 316.82 487.92C312.68 491.91 306.13 491.91 302 487.92C298.47 484.13 295.21 480.1 292.25 475.86C283.16 463.57 271.94 448.34 256.11 448.34C244.54 448.34 236.12 480.34 234.77 502.34C234.43 507.97 229.75 512.35 224.11 512.34Z" />
	<path id="Layer" class="shp1" d="M160.11 491.01C154.22 491.02 149.43 486.25 149.42 480.36C149.41 475.72 152.41 471.61 156.82 470.19C183.79 461.42 201.62 405.44 192.62 376.92C190.51 371.42 193.26 365.25 198.76 363.14C204.26 361.03 210.43 363.78 212.54 369.28C212.69 369.68 212.82 370.1 212.93 370.52C224.26 405.95 204.4 477.18 163.39 490.58C162.33 490.89 161.22 491.04 160.11 491.01Z" />
	<path id="Layer" class="shp1" d="M74.78 277.68C68.88 277.68 64.11 272.9 64.11 267.01C64.23 166.91 145.34 85.79 245.44 85.68C343.87 85.68 379.1 142.53 404.8 184.04C416.94 203.61 427.42 220.52 440.75 224.85C446.37 226.61 449.5 232.6 447.74 238.22C445.98 243.84 440 246.97 434.38 245.21C434.3 245.19 434.23 245.17 434.16 245.14C413.38 238.4 401.01 218.41 386.67 195.27C362.31 155.95 331.99 107.01 245.44 107.01C157.12 107.1 85.54 178.68 85.44 267.01C85.44 272.9 80.67 277.68 74.78 277.68Z" />
	<path id="Layer" class="shp1" d="M85.44 352.34C81.4 352.35 77.7 350.07 75.88 346.45C69.8 334.99 65.81 322.54 64.11 309.67C64.11 303.78 68.88 299.01 74.78 299.01C80.67 299.01 85.44 303.78 85.44 309.67C87.22 319.18 90.43 328.36 94.98 336.9C97.62 342.16 95.49 348.57 90.22 351.21C88.74 351.95 87.1 352.34 85.44 352.34Z" />
	<path id="Layer" class="shp1" d="M394.78 128.34C391.04 128.34 387.58 126.39 385.64 123.2C375.15 105.88 316.78 64.34 234.78 64.34C149.44 64.34 103.83 107.93 94.55 123.2C91.68 128.34 85.18 130.18 80.04 127.31C74.89 124.43 73.06 117.93 75.93 112.79C76.06 112.57 76.19 112.34 76.33 112.13C88 92.91 139.22 43.01 234.78 43.01C324.63 43.01 389.25 88.02 403.89 112.15C406.94 117.19 405.33 123.75 400.29 126.8C398.62 127.81 396.72 128.34 394.78 128.34Z" />
	<path id="Layer" class="shp1" d="M352.11 43.01C350.93 43.01 349.75 42.82 348.63 42.43C344.37 40.96 340.23 39.42 336.15 37.93C303.91 25.33 269.34 19.78 234.78 21.68C183.58 21.68 172.03 27.58 156.1 35.76C152.17 37.78 148.01 39.89 143.15 42.16C137.75 44.54 131.44 42.1 129.06 36.7C126.67 31.31 129.11 25 134.51 22.61C139.01 20.59 142.83 18.62 146.46 16.77C164.25 7.6 178.39 0.34 234.78 0.34C271.88 -1.55 308.96 4.44 343.58 17.92C347.5 19.37 351.43 20.84 355.57 22.19C361.17 23.99 364.26 29.99 362.46 35.6C361.02 40.09 356.82 43.09 352.11 43.01Z" />
	<path id="Layer" class="shp1" d="M437.44 192.34C432.8 192.34 428.7 189.34 427.29 184.92C421.75 170.9 414.96 157.41 407.02 144.6C403.93 139.58 405.5 133.01 410.52 129.92C415.54 126.83 422.11 128.4 425.2 133.42L425.2 133.42C434.05 147.69 441.55 162.76 447.6 178.43C449.39 184.04 446.29 190.05 440.68 191.84C439.63 192.17 438.54 192.34 437.44 192.34Z" />
	<g id="Layer">
	</g>
	<g id="Layer">
	</g>
	<g id="Layer">
	</g>
	<g id="Layer">
	</g>
	<g id="Layer">
	</g>
	<g id="Layer">
	</g>
	<g id="Layer">
	</g>
	<g id="Layer">
	</g>
	<g id="Layer">
	</g>
	<g id="Layer">
	</g>
	<g id="Layer">
	</g>
	<g id="Layer">
	</g>
	<g id="Layer">
	</g>
	<g id="Layer">
	</g>
	<g id="Layer">
	</g>
</svg>