<svg version="1.2" baseProfile="tiny-ps" xmlns="http://www.w3.org/2000/svg" viewBox="0 0 37 37" width="37" height="37">
	<title>photo-camera-interface-symbol-for-button-svg</title>
	<style>
		tspan { white-space:pre }
		.shp0 { fill: #ffffff } 
	</style>
	<g id="Layer">
		<path id="Layer" fill-rule="evenodd" class="shp0" d="M36.17 12.24L36.17 28.81C36.17 31.02 34.38 32.81 32.17 32.81L4 32.81C1.79 32.81 0 31.02 0 28.81L0 12.24C0 10.04 1.79 8.24 4 8.24L8.92 8.24L8.92 6.86C8.92 4.93 10.49 3.36 12.42 3.36L23.75 3.36C25.69 3.36 27.25 4.93 27.25 6.86L27.25 8.24L32.17 8.24C34.38 8.24 36.17 10.04 36.17 12.24ZM26.92 20.53C26.92 15.66 22.96 11.69 18.09 11.69C13.22 11.69 9.25 15.66 9.25 20.53C9.25 25.4 13.22 29.36 18.09 29.36C22.96 29.36 26.92 25.4 26.92 20.53ZM23.92 20.53C23.92 23.74 21.3 26.36 18.09 26.36C14.87 26.36 12.25 23.74 12.25 20.53C12.25 17.31 14.87 14.69 18.09 14.69C21.3 14.69 23.92 17.31 23.92 20.53Z" />
	</g>
	<g id="Layer">
	</g>
	<g id="Layer">
	</g>
	<g id="Layer">
	</g>
	<g id="Layer">
	</g>
	<g id="Layer">
	</g>
	<g id="Layer">
	</g>
	<g id="Layer">
	</g>
	<g id="Layer">
	</g>
	<g id="Layer">
	</g>
	<g id="Layer">
	</g>
	<g id="Layer">
	</g>
	<g id="Layer">
	</g>
	<g id="Layer">
	</g>
	<g id="Layer">
	</g>
	<g id="Layer">
	</g>
</svg>