<svg version="1.2" baseProfile="tiny-ps" xmlns="http://www.w3.org/2000/svg" viewBox="0 0 682 683" width="682" height="683">
	<title>placeholder-svg</title>
	<style>
		tspan { white-space:pre }
		.shp0 { fill: #ffffff } 
	</style>
	<path id="Layer" fill-rule="evenodd" class="shp0" d="M557.67 243.46C557.67 390.05 335.43 661 335.43 661C335.43 661 112.75 397.64 112.75 243.46C112.75 120.8 212.55 21 335.21 21C457.88 21 557.67 120.8 557.67 243.46ZM402.33 174.36C384.4 156.43 360.57 146.55 335.21 146.55C309.86 146.55 286.02 156.43 268.09 174.36C231.08 211.37 231.08 271.59 268.09 308.6C286.59 327.1 310.91 336.36 335.21 336.36C359.52 336.36 383.82 327.1 402.33 308.6C439.34 271.59 439.34 211.37 402.33 174.36Z" />
</svg>