<svg version="1.2" baseProfile="tiny-ps" xmlns="http://www.w3.org/2000/svg" viewBox="0 0 513 513" width="513" height="513">
	<title>signal-svg</title>
	<style>
		tspan { white-space:pre }
		.shp0 { fill: #ffffff } 
	</style>
	<g id="Layer">
		<g id="Layer">
			<path id="Layer" class="shp0" d="M102.69 330.76C97.03 328.14 90.37 329.07 85.61 333.13L21.61 387.85C18.05 390.89 16.01 395.34 16.01 400.01L16.01 496.01C16.01 504.84 23.17 512.01 32.01 512.01L96.01 512.01C104.84 512.01 112.01 504.84 112.01 496.01L112.01 345.29C112.01 339.05 108.36 333.39 102.69 330.76Z" />
		</g>
	</g>
	<g id="Layer">
		<g id="Layer">
			<path id="Layer" class="shp0" d="M230.69 221C225.06 218.38 218.37 219.31 213.61 223.37L149.61 278.09C146.05 281.13 144.01 285.58 144.01 290.25L144.01 496.01C144.01 504.84 151.17 512.01 160.01 512.01L224.01 512.01C232.84 512.01 240.01 504.84 240.01 496.01L240.01 235.53C240.01 229.29 236.36 223.6 230.69 221Z" />
		</g>
	</g>
	<g id="Layer">
		<g id="Layer">
			<path id="Layer" class="shp0" d="M358.69 111.24C353.03 108.62 346.37 109.55 341.61 113.61L277.61 168.33C274.05 171.37 272.01 175.82 272.01 180.49L272.01 496.01C272.01 504.84 279.17 512.01 288.01 512.01L352.01 512.01C360.84 512.01 368.01 504.84 368.01 496.01L368.01 125.77C368.01 119.53 364.39 113.87 358.69 111.24Z" />
		</g>
	</g>
	<g id="Layer">
		<g id="Layer">
			<path id="Layer" class="shp0" d="M486.69 1.48C481.06 -1.14 474.34 -0.24 469.61 3.85L405.61 58.57C402.05 61.61 400.01 66.06 400.01 70.73L400.01 496.01C400.01 504.84 407.17 512.01 416.01 512.01L480.01 512.01C488.84 512.01 496.01 504.84 496.01 496.01L496.01 16.01C496.01 9.77 492.39 4.08 486.69 1.48Z" />
		</g>
	</g>
	<g id="Layer">
	</g>
	<g id="Layer">
	</g>
	<g id="Layer">
	</g>
	<g id="Layer">
	</g>
	<g id="Layer">
	</g>
	<g id="Layer">
	</g>
	<g id="Layer">
	</g>
	<g id="Layer">
	</g>
	<g id="Layer">
	</g>
	<g id="Layer">
	</g>
	<g id="Layer">
	</g>
	<g id="Layer">
	</g>
	<g id="Layer">
	</g>
	<g id="Layer">
	</g>
	<g id="Layer">
	</g>
</svg>