<svg version="1.2" baseProfile="tiny-ps" xmlns="http://www.w3.org/2000/svg" viewBox="0 0 513 513" width="513" height="513">
	<title>undo-svg</title>
	<style>
		tspan { white-space:pre }
		.shp0 { fill: #fa0052 } 
	</style>
	<g id="Layer">
		<g id="Layer">
			<path id="Layer" class="shp0" d="M511.14 286.25C502.08 194.86 419.84 128.01 328 128.01L192 128.01L192 48.01C192 41.87 188.48 36.27 182.94 33.58C177.38 30.93 170.82 31.63 166.02 35.5L6.02 163.5C2.21 166.57 0 171.15 0 176.01C0 180.88 2.21 185.45 5.98 188.53L165.98 316.53C168.9 318.83 172.45 320.01 176 320.01C178.37 320.01 180.74 319.5 182.94 318.45C188.48 315.76 192 310.16 192 304.01L192 224.01L331.39 224.01C373.25 224.01 411.39 254.09 415.58 295.73C420.42 343.6 382.88 384.01 336 384.01L208 384.01C199.17 384.01 192 391.18 192 400.01L192 464.01C192 472.85 199.17 480.01 208 480.01L336 480.01C438.82 480.01 521.47 391.15 511.14 286.25Z" />
		</g>
	</g>
	<g id="Layer">
	</g>
	<g id="Layer">
	</g>
	<g id="Layer">
	</g>
	<g id="Layer">
	</g>
	<g id="Layer">
	</g>
	<g id="Layer">
	</g>
	<g id="Layer">
	</g>
	<g id="Layer">
	</g>
	<g id="Layer">
	</g>
	<g id="Layer">
	</g>
	<g id="Layer">
	</g>
	<g id="Layer">
	</g>
	<g id="Layer">
	</g>
	<g id="Layer">
	</g>
	<g id="Layer">
	</g>
</svg>