<svg width="16" height="18" viewBox="0 0 16 18" fill="none" xmlns="http://www.w3.org/2000/svg">
<path d="M9.52051 15.7471L9.51172 11.2295L13.3789 13.4619C13.7217 13.6641 13.9854 13.7695 14.2139 13.7695C14.5742 13.7695 14.8467 13.5234 15.1982 12.9785L15.3389 12.75C15.5674 12.4072 15.6641 12.126 15.6641 11.8887C15.6641 11.4932 15.3828 11.2119 14.8555 10.9131L10.8301 8.60156L14.8467 6.4043C15.374 6.11426 15.6289 5.83301 15.6289 5.44629C15.6289 5.20898 15.5322 4.92773 15.3301 4.58496L15.1895 4.33887C14.8643 3.78516 14.583 3.53906 14.2139 3.53906C13.9766 3.53906 13.7041 3.64453 13.3701 3.83789L9.51172 6.0791L9.52051 1.58789C9.52051 0.550781 9.16016 0.27832 8.12305 0.27832H7.85059C6.81348 0.27832 6.45312 0.550781 6.46191 1.58789V6.0791L2.60352 3.83789C2.26074 3.63574 1.9707 3.52148 1.71582 3.52148C1.34668 3.52148 1.03906 3.75879 0.757812 4.33008L0.634766 4.56738C0.458984 4.92773 0.362305 5.20898 0.362305 5.45508C0.362305 5.8418 0.608398 6.10547 1.14453 6.41309L5.14355 8.60156L1.11816 10.9131C0.599609 11.2119 0.335938 11.4844 0.335938 11.8623C0.335938 12.0996 0.450195 12.3896 0.652344 12.75L0.78418 12.9697C1.10059 13.5234 1.39062 13.7783 1.75977 13.7783C1.98828 13.7783 2.26074 13.6641 2.59473 13.4707L6.46191 11.2295L6.45312 15.7471C6.45312 16.7842 6.81348 17.0566 7.85059 17.0566H8.12305C9.16016 17.0566 9.52051 16.7842 9.52051 15.7471Z" fill="#FF668C"/>
</svg>
