<svg width="45" height="46" viewBox="0 0 45 46" fill="none" xmlns="http://www.w3.org/2000/svg">
<path d="M44.8783 40.8025C44.7566 39.7206 44.6439 38.6432 44.5312 37.5614C44.4186 36.5111 44.3104 35.4608 44.1977 34.4104C44.085 33.3601 43.9678 32.3098 43.8551 31.2595C43.7425 30.2092 43.6343 29.1589 43.5216 28.1086C43.4089 27.0582 43.2917 26.0079 43.179 24.9576C43.0664 23.9073 42.9582 22.857 42.8455 21.8067C42.7328 20.7564 42.6156 19.7061 42.5029 18.6557C42.3903 17.619 42.2821 16.5822 42.1739 15.5499C42.0612 14.486 41.944 13.4177 41.8313 12.3539C41.7322 11.4433 41.6105 10.5372 41.5474 9.62666C41.3941 7.47194 40.0509 5.70489 38.0272 5.1369C37.4187 4.96561 36.7741 4.91602 36.1476 4.82136C34.8675 4.63203 33.5829 4.44721 32.3028 4.25789C31.0228 4.06856 29.7382 3.88374 28.4581 3.69441C27.0563 3.48706 25.659 3.28421 24.2573 3.07685C22.9817 2.89203 21.7061 2.70721 20.435 2.52239C19.0423 2.31954 17.6495 2.11218 16.2567 1.90933C14.9812 1.72451 13.7056 1.53519 12.4345 1.35037C11.1544 1.16555 9.86986 0.976222 8.58977 0.791403C7.29166 0.602076 5.99806 0.412749 4.69995 0.223422C4.22217 0.151298 3.75791 0.0701577 3.28915 0.0205721C2.44628 -0.0650758 1.6575 0.110728 0.990411 0.660677C0.224165 1.29627 -0.0778262 2.14374 0.0168278 3.1084C0.16557 4.6726 0.359385 6.2368 0.539678 7.801C0.75603 9.68976 0.981397 11.583 1.20226 13.4718C1.40509 15.2343 1.5989 17.0014 1.80173 18.7639C2.00456 20.522 2.2119 22.2755 2.41473 24.0335C2.57248 25.4039 2.72123 26.7743 2.87898 28.1446C3.03674 29.515 3.199 30.8808 3.35676 32.2512C3.501 33.4863 3.63622 34.7215 3.77594 35.9611C3.86609 36.759 3.91567 37.5614 4.06892 38.3457C4.38894 39.9821 5.39858 41.0955 6.87248 41.8122C7.5621 42.1458 8.31032 42.2089 9.05854 42.2675C10.2755 42.3667 11.4925 42.4704 12.7095 42.574C13.6876 42.6552 14.6657 42.7318 15.6437 42.8129C16.8247 42.9121 18.0056 43.0158 19.1865 43.1105C20.1556 43.1916 21.1292 43.2682 22.0982 43.3494C23.1079 43.435 24.113 43.5207 25.1227 43.6018C25.9069 43.6694 26.6912 43.7325 27.4755 43.7956C28.4987 43.8813 29.5218 43.9669 30.545 44.0526C31.5096 44.1337 32.4741 44.2104 33.4342 44.2915C34.4573 44.3771 35.4805 44.4628 36.5037 44.5484C37.4818 44.6296 38.4599 44.7062 39.438 44.7874C40.2087 44.8505 40.975 44.9136 41.7457 44.9767C41.7953 44.9812 41.8449 45.0037 41.8944 45.0218C42.0297 45.0218 42.1649 45.0218 42.3001 45.0218C42.4849 44.9902 42.6652 44.9632 42.8455 44.9226C43.9858 44.6656 44.8152 43.7416 44.9504 42.5785C44.9594 42.5064 44.982 42.4343 45 42.3622C45 42.1954 45 42.0331 45 41.8663C44.9684 41.5147 44.9144 41.1586 44.8783 40.8025Z" fill="#49A0CD"/>
<path d="M1.58025 13.7163L9.04889 12.5037L6.29041 32.3199L8.30969 31.9818L8.58013 29.6918L13.4571 28.9886L12.4835 35.9892L0.773438 37.8374L3.7663 16.6734L1.58025 13.7163Z" fill="white"/>
<path d="M26.5644 33.7984L14.8544 35.6511C14.5839 35.6962 14.318 35.579 14.0476 35.2995C13.7771 35.02 13.6329 34.7315 13.6104 34.4431V34.2086L14.8904 25.1931L19.3302 27.7174L18.9245 30.377L22.3546 29.8406L22.7918 26.5454L15.4268 21.4156L16.8737 11.255L28.5476 9.43838C28.8181 9.41585 29.075 9.53756 29.3229 9.80802C29.5708 10.0785 29.715 10.358 29.7601 10.651V10.8854L28.5476 19.2969L24.1755 16.7725L24.4775 14.6854L21.0114 15.2579L20.6733 17.6471L28.0789 22.8986L26.5644 33.7984Z" fill="white"/>
<path d="M31.3557 9.00562L43.0297 7.18898C43.3001 7.16644 43.557 7.28815 43.805 7.55862C44.0529 7.82908 44.1971 8.10857 44.2422 8.40157V8.63598L42.9305 17.7868L38.5224 15.2624L38.9596 12.436L35.4934 13.0085L33.4065 28.1141L36.8366 27.5777L37.5082 22.4613L41.9164 25.1209L41.0059 31.549L29.3319 33.4017C29.0615 33.4468 28.7955 33.3296 28.5251 33.0501C28.2547 32.7706 28.1104 32.4821 28.0879 32.1936V31.9592L31.3557 9.00562Z" fill="white"/>
</svg>
