<svg version="1.2" baseProfile="tiny-ps" xmlns="http://www.w3.org/2000/svg" viewBox="0 0 512 512" width="512" height="512">
	<title>exit-svg</title>
	<style>
		tspan { white-space:pre }
		.shp0 { fill: #ffffff } 
	</style>
	<g id="Layer">
		<g id="Layer">
			<path id="Layer" fill-rule="evenodd" class="shp0" d="M405.37 335.23C414.73 344.57 419.88 356.99 419.88 370.21C419.88 383.43 414.73 395.86 405.37 405.2C386.12 424.4 354.81 424.4 335.56 405.2L256 325.81L176.44 405.19C166.82 414.8 154.17 419.6 141.53 419.6C128.89 419.6 116.25 414.8 106.63 405.19C97.27 395.86 92.12 383.43 92.12 370.21C92.12 356.99 97.27 344.57 106.63 335.23L186.03 256L106.63 176.77C97.27 167.43 92.12 155.01 92.12 141.79C92.12 128.57 97.27 116.14 106.63 106.8C125.88 87.6 157.19 87.6 176.44 106.8L256 186.19L335.56 106.8C354.81 87.6 386.12 87.6 405.37 106.8C405.37 106.8 405.37 106.8 405.37 106.8C414.73 116.14 419.88 128.57 419.88 141.79C419.88 155.01 414.73 167.43 405.37 176.77L325.97 256L405.37 335.23ZM390.35 370.21C390.35 364.89 388.27 359.9 384.51 356.14L294.63 266.45C291.85 263.69 290.29 259.92 290.29 256C290.29 252.08 291.85 248.31 294.63 245.54L384.51 155.86C388.27 152.1 390.35 147.1 390.35 141.79C390.35 136.47 388.27 131.47 384.51 127.71C376.76 119.99 364.16 119.99 356.42 127.71L266.43 217.51C260.67 223.26 251.33 223.26 245.57 217.51L155.58 127.71C147.84 119.99 135.24 119.99 127.5 127.71C123.73 131.47 121.66 136.47 121.66 141.79C121.66 147.1 123.73 152.1 127.49 155.86L217.38 245.54C220.15 248.31 221.71 252.08 221.71 256C221.71 259.92 220.15 263.69 217.38 266.45L127.49 356.14C123.73 359.9 121.66 364.89 121.66 370.21C121.66 375.53 123.73 380.53 127.5 384.29C135.24 392.01 147.84 392.01 155.58 384.29L245.57 294.49C248.45 291.62 252.23 290.18 256 290.18C259.78 290.18 263.55 291.62 266.43 294.49L356.42 384.29C364.17 392.01 376.76 392.01 384.51 384.29C388.27 380.53 390.35 375.53 390.35 370.21Z" />
		</g>
	</g>
	<g id="Layer">
		<g id="Layer">
			<path id="Layer" fill-rule="evenodd" class="shp0" d="M512 73.85L512 438.15C512 478.87 478.87 512 438.15 512L73.85 512C33.13 512 0 478.87 0 438.15L0 73.85C0 33.13 33.13 0 73.85 0L438.15 0C478.87 0 512 33.13 512 73.85ZM482.46 73.85C482.46 49.41 462.58 29.54 438.15 29.54L73.85 29.54C49.41 29.54 29.54 49.42 29.54 73.85L29.54 438.15C29.54 462.59 49.42 482.46 73.85 482.46L438.15 482.46C462.59 482.46 482.46 462.58 482.46 438.15L482.46 73.85Z" />
		</g>
	</g>
	<g id="Layer">
	</g>
	<g id="Layer">
	</g>
	<g id="Layer">
	</g>
	<g id="Layer">
	</g>
	<g id="Layer">
	</g>
	<g id="Layer">
	</g>
	<g id="Layer">
	</g>
	<g id="Layer">
	</g>
	<g id="Layer">
	</g>
	<g id="Layer">
	</g>
	<g id="Layer">
	</g>
	<g id="Layer">
	</g>
	<g id="Layer">
	</g>
	<g id="Layer">
	</g>
	<g id="Layer">
	</g>
</svg>