<svg width="29" height="30" viewBox="0 0 29 30" fill="none" xmlns="http://www.w3.org/2000/svg">
<path d="M25.5982 13.418L27.464 12.3409C28.0163 12.0221 28.284 11.3717 28.1189 10.7557C27.4507 8.26369 26.1359 6.03619 24.3655 4.26373C23.9155 3.81326 23.2185 3.72197 22.6671 4.04043L20.8047 5.11609C20.1997 4.68313 19.5541 4.3099 18.877 4.00164V1.84814C18.877 1.53797 18.7745 1.23649 18.5854 0.990596C18.3964 0.744698 18.1314 0.568155 17.8316 0.488415C15.3847 -0.162385 12.7857 -0.163205 10.3357 0.488357C9.71936 0.652302 9.29016 1.21029 9.29016 1.84808V4.00158C8.61307 4.30984 7.96749 4.68307 7.36249 5.11603L5.50009 4.04037C4.94872 3.72191 4.25175 3.8132 3.80175 4.26367C2.03128 6.03613 0.71655 8.26357 0.0483468 10.7557C-0.116829 11.3716 0.150945 12.0221 0.703249 12.3409L2.56905 13.418C2.49757 14.1584 2.49757 14.9041 2.56905 15.6445L0.703249 16.7216C0.150945 17.0404 -0.116829 17.6908 0.0483468 18.3068C0.71655 20.7988 2.03128 23.0263 3.80175 24.7988C4.25175 25.2492 4.94872 25.3405 5.50009 25.0221L7.36249 23.9464C7.96747 24.3794 8.61306 24.7526 9.29016 25.0608V27.2143C9.2902 27.5245 9.39272 27.826 9.58178 28.0719C9.77084 28.3178 10.0358 28.4943 10.3356 28.574C12.7825 29.2248 15.3815 29.2257 17.8315 28.5741C18.4478 28.4101 18.877 27.8522 18.877 27.2144V25.0609C19.5541 24.7526 20.1997 24.3794 20.8047 23.9465L22.6671 25.0221C23.2185 25.3406 23.9155 25.2493 24.3655 24.7988C26.1359 23.0264 27.4507 20.7989 28.1189 18.3068C28.284 17.6909 28.0163 17.0404 27.464 16.7216L25.5982 15.6446C25.6696 14.9034 25.6696 14.1592 25.5982 13.418ZM22.5115 17.1105L25.079 18.5923C24.6172 19.8396 23.9465 20.9993 23.0957 22.0217L20.5276 20.5387C18.6535 22.144 18.3796 22.301 16.0646 23.1185V26.0833C14.7534 26.3072 13.4138 26.3072 12.1026 26.0833V23.1185C9.78792 22.3012 9.513 22.1434 7.63964 20.5387L5.07153 22.0217C4.22073 20.9993 3.55005 19.8396 3.08819 18.5923L5.65571 17.1105C5.20864 14.6907 5.20841 14.3731 5.65571 11.952L3.08819 10.4703C3.54815 9.22638 4.21964 8.06505 5.07153 7.04084L7.63964 8.52378C9.5137 6.91849 9.78768 6.7614 12.1026 5.94396V2.97924C13.4138 2.75541 14.7534 2.75541 16.0646 2.97924V5.94402C18.3793 6.7614 18.6542 6.91914 20.5276 8.52384L23.0957 7.04089C23.9465 8.06329 24.6172 9.22298 25.079 10.4703L22.5115 11.9521C22.9586 14.372 22.9588 14.6895 22.5115 17.1105ZM14.0836 8.90628C10.9819 8.90628 8.4586 11.4296 8.4586 14.5313C8.4586 17.6329 10.9819 20.1563 14.0836 20.1563C17.1853 20.1563 19.7086 17.6329 19.7086 14.5313C19.7086 11.4296 17.1853 8.90628 14.0836 8.90628ZM14.0836 17.3438C12.5327 17.3438 11.2711 16.0821 11.2711 14.5313C11.2711 12.9805 12.5327 11.7188 14.0836 11.7188C15.6345 11.7188 16.8961 12.9805 16.8961 14.5313C16.8961 16.0821 15.6345 17.3438 14.0836 17.3438Z" fill="#8493B4"/>
</svg>
